<svg width="196" height="26" viewBox="0 0 196 26" fill="none" xmlns="http://www.w3.org/2000/svg" data-v-017730e4="" data-v-60e3777e=""><path d="M22.901 0.1604L31.2282 19.087H27.5197L25.3478 14.085H17.322L15.2328 19.087H11.5214L19.6299 0.1604H22.901ZM18.4745 11.3762H24.1628L21.2492 4.55047L18.4745 11.3762Z" fill="black" data-v-017730e4=""></path> <path d="M44.1472 8.36429C45.7695 6.65044 46.9781 5.96133 48.627 5.96133C51.4845 5.96133 52.9974 7.86825 52.9974 11.0732V19.087H49.809V11.5425C49.809 9.6623 48.9579 8.61379 47.4184 8.61379C46.4846 8.61379 45.4385 9.22269 44.5875 10.3544V19.084H41.3991V11.6524C41.3991 9.55239 40.684 8.58706 39.1178 8.58706C38.0451 8.58706 37.1675 9.11279 36.2042 10.3544V19.084H33.0157V6.21084H36.2042V7.95142C37.5221 6.59697 38.6775 5.96133 40.2437 5.96133C41.9753 5.96133 43.4055 6.76331 44.1472 8.36429Z" fill="black" data-v-017730e4=""></path> <path d="M65.5979 10.0781V15.9919C65.5979 16.488 65.7072 16.8474 66.1209 16.8474C66.4223 16.8474 66.8094 16.6543 67.3856 16.2682V18.3682C66.2302 19.0305 65.2965 19.3365 64.3331 19.3365C63.3166 19.3365 62.6842 18.9503 62.436 18.0117C61.3102 18.9236 60.1282 19.3365 58.8339 19.3365C56.7713 19.3365 55.48 17.9286 55.48 16.1583C55.48 13.286 58.5295 12.4276 62.3799 11.186V10.6603C62.3799 9.08606 61.582 8.56032 60.1814 8.56032C58.6418 8.56032 57.0757 9.27913 55.7843 10.7435V7.72865C57.0491 6.51381 58.698 5.96133 60.6217 5.96133C63.8131 5.96133 65.5979 7.61875 65.5979 10.0781ZM60.2937 17.29C60.9822 17.29 61.6943 16.9306 62.3828 16.2949V12.787C59.8534 13.6989 58.6714 14.391 58.6714 15.6593C58.6714 16.5979 59.3333 17.29 60.2937 17.29Z" fill="black" data-v-017730e4=""></path> <path d="M80.293 6.21086V6.40392L73.8068 16.3781H80.293V19.087H68.473V18.891L74.9592 8.94351H68.801V6.20789H80.293V6.21086Z" fill="black" data-v-017730e4=""></path> <path d="M85.5556 2.61979C85.5556 3.53166 84.8139 4.2772 83.9067 4.2772C82.9729 4.2772 82.2844 3.47522 82.2844 2.61979C82.2844 1.79108 82.9729 0.989105 83.9067 0.989105C84.8139 0.989105 85.5556 1.73464 85.5556 2.61979ZM85.529 6.21085V19.087H82.314V6.21085H85.529Z" fill="black" data-v-017730e4=""></path> <path d="M100.452 11.2663V19.084H97.2366V11.5989C97.2366 9.27915 96.1935 8.58708 94.8727 8.58708C93.7734 8.58708 92.7569 9.22272 91.9324 10.4673V19.087H88.7174V6.21086H91.9324V7.92471C93.141 6.57026 94.654 5.96433 96.0281 5.96433C98.9949 5.96136 100.452 8.03461 100.452 11.2663Z" fill="black" data-v-017730e4=""></path> <path d="M114.464 8.47715H111.991C112.898 9.19596 113.282 10.1613 113.282 11.186C113.282 13.5355 111.524 14.9999 108.995 15.3593C107.922 15.5256 106.823 15.6919 106.823 16.4375C106.823 17.0999 107.866 17.4593 109.875 17.7355C113.256 18.2048 114.272 19.7523 114.272 21.4662C114.272 24.0919 111.908 25.5265 108.061 25.5265C103.909 25.5265 101.932 23.9523 101.932 21.8256C101.932 20.3345 102.674 19.0365 105.094 18.5375C104.326 18.1216 103.856 17.5424 103.856 16.9068C103.856 15.9949 104.515 15.2494 105.863 14.9167C103.773 14.1444 102.813 12.6237 102.813 10.8563C102.813 8.03755 104.929 6.21381 108.75 6.21381H114.467V8.47715H114.464ZM108.144 23.4236C110.233 23.4236 111.442 22.8147 111.442 21.683C111.442 20.4949 109.958 19.886 107.73 19.886C106.055 19.886 104.816 20.4384 104.816 21.6533C104.816 22.8147 105.998 23.4236 108.144 23.4236ZM108.005 13.1732C109.406 13.1732 110.425 12.288 110.425 10.8534C110.425 9.60883 109.408 8.61676 108.034 8.61676C106.578 8.61676 105.644 9.7217 105.644 10.9365C105.641 12.3147 106.77 13.1732 108.005 13.1732Z" fill="black" data-v-017730e4=""></path> <path d="M131.781 0.243561C135.82 0.243561 138.24 2.28711 138.24 5.76827C138.24 9.193 135.903 11.2662 131.645 11.2662H128.675V19.084H125.046V0.243561H131.781ZM128.675 8.47716H131.095C133.76 8.47716 134.532 7.39895 134.532 5.74154C134.532 3.97422 133.625 3.00592 131.012 3.00592H128.675V8.47716Z" fill="black" data-v-017730e4=""></path> <path d="M143.556 0.243561V19.087H140.341V0.243561H143.556Z" fill="black" data-v-017730e4=""></path> <path d="M156.254 10.0781V15.9919C156.254 16.488 156.363 16.8474 156.777 16.8474C157.078 16.8474 157.465 16.6543 158.042 16.2682V18.3682C156.886 19.0305 155.953 19.3365 154.992 19.3365C153.976 19.3365 153.343 18.9503 153.095 18.0117C151.969 18.9236 150.787 19.3365 149.493 19.3365C147.43 19.3365 146.139 17.9286 146.139 16.1583C146.139 13.286 149.192 12.4276 153.039 11.186V10.6603C153.039 9.08606 152.241 8.56032 150.84 8.56032C149.301 8.56032 147.735 9.27913 146.443 10.7435V7.72865C147.708 6.51381 149.357 5.96133 151.281 5.96133C154.469 5.96133 156.254 7.61875 156.254 10.0781ZM150.95 17.29C151.638 17.29 152.35 16.9306 153.039 16.2949V12.787C150.509 13.6989 149.327 14.391 149.327 15.6593C149.327 16.5979 149.989 17.29 150.95 17.29Z" fill="black" data-v-017730e4=""></path> <path d="M169.528 6.81677V9.82863C168.21 9.05636 167.081 8.80686 166.009 8.80686C163.754 8.80686 162.406 10.5474 162.406 12.6207C162.406 14.5276 163.532 16.5177 166.31 16.5177C167.465 16.5177 168.535 16.2147 169.773 15.689V18.5612C168.399 19.087 167.191 19.3335 165.843 19.3335C160.622 19.3335 159.082 15.383 159.082 12.7573C159.082 9.21972 161.227 5.96133 165.651 5.96133C166.945 5.96133 168.045 6.18411 169.528 6.81677Z" fill="black" data-v-017730e4=""></path> <path d="M183.738 12.6742V13.1702H174.749C174.968 15.2969 176.507 16.7345 178.706 16.7345C180.355 16.7345 182.004 16.1821 183.46 15.2702V17.8662C181.838 18.888 180.163 19.3305 178.156 19.3305C174.336 19.3305 171.478 16.7345 171.478 12.5613C171.478 8.74746 173.925 5.95837 177.881 5.95837C181.153 5.96134 183.738 8.33756 183.738 12.6742ZM180.633 11.4059C180.55 9.52567 179.533 8.394 177.802 8.394C176.097 8.394 174.832 9.66528 174.749 11.4059H180.633Z" fill="black" data-v-017730e4=""></path> <path d="M190.301 5.96133C191.702 5.96133 193.106 6.32074 194.37 7.03954V9.77517C192.857 8.86329 191.788 8.45042 190.659 8.45042C189.586 8.45042 189.146 8.89299 189.146 9.3623C189.146 9.9415 189.311 10.2742 191.566 11.4355C193.463 12.4039 195.003 13.5623 195.003 15.5523C195.003 17.3761 193.629 19.3365 190.384 19.3365C188.983 19.3365 187.828 19.1167 185.878 18.2315V15.3028C187.196 16.2415 188.682 16.8771 189.864 16.8771C191.155 16.8771 191.735 16.3514 191.735 15.7989C191.735 15.0533 191.404 14.7474 188.957 13.3959C186.924 12.3474 185.878 11.186 185.878 9.49893C185.875 7.53558 187.606 5.96133 190.301 5.96133Z" fill="black" data-v-017730e4=""></path> <path d="M4.91415 2.73265C6.12275 2.73265 7.10971 3.72175 7.10971 4.93956C7.10971 6.15441 6.1257 7.14648 4.91415 7.14648C3.70261 7.14648 2.71859 6.15441 2.71859 4.93956C2.71859 3.72175 3.70261 2.73265 4.91415 2.73265ZM4.91415 0C2.19851 0 0 2.20988 0 4.93956C0 7.66628 2.19851 9.87913 4.91415 9.87913C7.62979 9.87913 9.82831 7.66925 9.82831 4.93956C9.82535 2.20988 7.62684 0 4.91415 0Z" fill="black" data-v-017730e4=""></path></svg>