<svg id="Vrstva_1" data-name="Vrstva 1" xmlns="http://www.w3.org/2000/svg" viewBox="0 0 265.14 171.49"><defs><style>.cls-1,.cls-2{fill-rule:evenodd;}.cls-2{fill:#0d0d0d;}</style></defs><path class="cls-1" d="M47.12,60.91c14.58-12.52,87.14-7.67,108.34-7.61C120.06,47.91,64.71,40,47.89,49.42a106.21,106.21,0,0,1,8.34-31.13C69.84,12.69,72.38,10,97.14,15.7c2.42.69,23.35-5.46,23.94-5.67,1.8-.66,19.81-5.32,21.82-5.24,9.1.35,21.29,3,29.64,5.2,15-4.32,24.78-6.05,40.73-9.77a11,11,0,0,1,4.36,0c8.2,1.56,20.77,2.63,31,3.82h-.07A107.08,107.08,0,0,1,264,45.61c-9.62,7.49-41.2,10.65-64.15,11.12,31.81,2.85,56.64,4,65.13-1.25,2.44,45.46-24.44,87.59-66.33,105.29-30.87-15.56-48.42-24-52.59-54.55-2.52-28.5,40.49-46.43,40-46.42-47.78,9-105,37.91-110.31,73.46a.93.93,0,0,0,0,.14l-.1.47h0A106.74,106.74,0,0,1,47.25,61.21V60.8l-.13.11m8.79-42.49.27-.11-.27.11ZM265,55.48ZM158.62,48.4l34.81-3.58-.13,11.37-34.58-2.91Zm43.24-4.15-.3.9L196.7,33.08l-2.8,9.8-18.78,2.39L180.44,36,197,32Zm-23.08-8.44,1.28-.38-5.13,8.75-.1,1.08-1.43.25-15.47,2.56,6.24-7.75,14.12-3.72Zm19.89,125h0Z"/><path class="cls-2" d="M94.39,169.47a.34.34,0,0,0-.14-.15.51.51,0,0,0,0,.3l-.2.13q-.21-.33-.39-.15c-.42,0-.67-.12-.74-.22a2,2,0,0,1-.1-.64,1,1,0,0,0-.18-.56,5,5,0,0,0,0-1.35,3.82,3.82,0,0,1,.06-1.34l-.21-.49a.26.26,0,0,1,.13-.23l.08-.23,0-.26.08-.18-.11-.33a1.62,1.62,0,0,0,.11-.85,4.39,4.39,0,0,1-.06-.82l.18-1.85v-.33c0-.34,0-1.06.11-2.16l-.11-.28c0-.46.09-.91.14-1.36a6.48,6.48,0,0,0,.07-1.33l.23-.47,0-.13a3.63,3.63,0,0,1,.67-.9,1,1,0,0,1,0-.33.76.76,0,0,1,.56-.83l.13.05.14-.05.37.1c.1.28.22.65.34,1.09a2.84,2.84,0,0,0-.12.6l.12.1c0,.89,0,1.82-.07,2.79l.07.26a7.31,7.31,0,0,0,0,1.15v.93a11.45,11.45,0,0,1-.19,1.79,11.35,11.35,0,0,0-.19,1.72c0,.09,0,.21,0,.38a3.15,3.15,0,0,1,0,.37l.08.15a1.39,1.39,0,0,0,0,.39s0,.33.07.94a2.15,2.15,0,0,1,0,.85l.23.56a3.09,3.09,0,0,1-.09.75L95,169c0,.14-.25.29-.64.47"/><path class="cls-2" d="M103.64,152.75h-.1a1.26,1.26,0,0,1-.8-.2.69.69,0,0,1-.2,0,1.16,1.16,0,0,1-.54-.15h-.34a3.64,3.64,0,0,1-1.43-.22l-.23.05-.23,0h-.26A.66.66,0,0,1,99,152l-.13,0h-.31l-.21,0a6.54,6.54,0,0,1-.74,0,21.65,21.65,0,0,1-3-.2l-.23.1-.72-.19a.58.58,0,0,0-.21.2l-.2-.07a5.23,5.23,0,0,1-.9.09l-.21.1h-.05l-.18-.07a9.62,9.62,0,0,1-1.48,0c0-.07-.08-.1-.13-.1l-.13.08-.23-.15a7.3,7.3,0,0,0-1.28.14h-.29c-.32,0-.84,0-1.56.08a.16.16,0,0,1-.15.1,5.22,5.22,0,0,1-.54-.08c-.17,0-.44.06-.8.09H85l-.18.25a1.23,1.23,0,0,0-.46.17,1.62,1.62,0,0,0-.44-.05l0-.07a1.82,1.82,0,0,1-.28.13l-.13-.15-.2-.13a.79.79,0,0,1-.29-.2,2.29,2.29,0,0,1,.26-.52l-.15-.05-.13.26-.16-.05-.1-.13a.78.78,0,0,1,.26-.28v-.05a1.6,1.6,0,0,1,.28-.88,4.35,4.35,0,0,0,.41-.85l1-.39a6.47,6.47,0,0,0,.82-.14,2.53,2.53,0,0,1,.82-.06l.31-.18.33.12a.89.89,0,0,1,.59-.13,4.82,4.82,0,0,0,.67-.06,4.85,4.85,0,0,0,1.36-.15l.51.18.36-.18.1.17.52-.18.41.17a.6.6,0,0,1,.28-.18c.15,0,.43,0,.82,0l.82,0a.55.55,0,0,0,.36.22l.15-.11q.28,0,1.11,0l.3.12a.5.5,0,0,1,.41-.13,5.3,5.3,0,0,1,1,.12.37.37,0,0,1,.28-.14,1.38,1.38,0,0,1,.59.18l.11.12.3-.18.39.06,0,.12h.33a7,7,0,0,1,.93.09,6.52,6.52,0,0,0,.92.08.32.32,0,0,0,.2.09l.16-.1.2.1h.18a3.14,3.14,0,0,1,1,.17l.07.17a1.35,1.35,0,0,1,.52-.08.52.52,0,0,1,.43.18l.21,0,.2.18.29,0a.27.27,0,0,0,.2.07l.26.1a7.6,7.6,0,0,0-.39.8l.34.23c0,.1.05.15.05.15a2.4,2.4,0,0,1-.13,1,3.21,3.21,0,0,1-.77.66"/><path class="cls-2" d="M67.12,156.73l.31.15a.69.69,0,0,0-.1.42.92.92,0,0,1-.11.46l.11.54-.08.13,0,.28a2.83,2.83,0,0,0-.38,1,3,3,0,0,1,.08.64,9.45,9.45,0,0,1-.26.91,7,7,0,0,0-.28,1.15l-.21.05,0,.29,0,.05a5.12,5.12,0,0,1-.59,1.9v.23a8.27,8.27,0,0,0-1.2,2.53,1.79,1.79,0,0,0-.65.9,1.86,1.86,0,0,1-1,.24l-.18-.17c-.44-.1-.91-.54-1.39-1.32l-1-1.81v0a8.45,8.45,0,0,0-.74-1.45q-.85-1.48-.93-1.68c-.05,0-.31-.63-.79-1.74v-.08l-.41-.81a2.51,2.51,0,0,1-.08.67v.28c0,.63-.19,2.31-.57,5l-.07.1v.57l-.16.28,0,.36a17.94,17.94,0,0,0-.21,1.93l-.15.38.1.13a1.92,1.92,0,0,0-.36,1.16l-.21.21-.27,0-.18.21-.19-.2h-.36c0-.13-.11-.19-.26-.15l-.32-.38.13-.1L54,170a1.27,1.27,0,0,1-.44-1,7.26,7.26,0,0,1,.44-2.57l-.15-.18L54,166v-.18a8,8,0,0,1,.38-3,.69.69,0,0,1-.1-.36,1.89,1.89,0,0,1,.1-.51,1.73,1.73,0,0,0,.11-.52v-.26a1.69,1.69,0,0,0,.14-1.33,4.24,4.24,0,0,0,.14-.64l-.13,0v-1.93l-.09-.07q-.06-1.41-.06-1.44a10.63,10.63,0,0,1,.43-1.29l-.07-.33a2.18,2.18,0,0,0,.18-.72l-.06-.13.23-.43v-.08a.77.77,0,0,1,.16-.54l.13-.08,0-.15c.12-.19.24-.29.36-.29a.7.7,0,0,1,.23.06.73.73,0,0,0,.26.06l.51.49,0,.12a8.58,8.58,0,0,1,1.41,2.68c.66,1.77,1.07,2.79,1.23,3.07l.31.25-.06.23c.14.37.36.94.67,1.69l0,.25.18.1c.23.45.48,1,.74,1.64l.1,0q.43.94,1.05,2a2.88,2.88,0,0,0,.77-1.31,1.86,1.86,0,0,0,.4-.79,3.25,3.25,0,0,1,.3-.76.94.94,0,0,1-.08-.43c0-.05,0-.14,0-.25a1.57,1.57,0,0,0,0-.27l.28.15a2.2,2.2,0,0,1,.16-.72,5.05,5.05,0,0,0,.2-.74,28.5,28.5,0,0,0,.39-4.24,2.31,2.31,0,0,0-.15-.59,2,2,0,0,0-.24-.56l0-.25a6.93,6.93,0,0,0-.49-1.15,4,4,0,0,1-.41-1.15,1.7,1.7,0,0,1-.46-.51,6.22,6.22,0,0,0-.41-.61h-.13a1.44,1.44,0,0,1-.26-.74,1.5,1.5,0,0,0,.31-.7l-.26-.35a2.1,2.1,0,0,0,.49-.5l.59-.26a4.09,4.09,0,0,1,.85.63c.49.42.76.65.79.69a4.22,4.22,0,0,0,.62,1.5,16.07,16.07,0,0,1,.82,1.71l.07,0a2.7,2.7,0,0,1,.2.82,1.77,1.77,0,0,0,.24.82l-.15.41a.66.66,0,0,1,.15.38,2,2,0,0,1,0,.49v.44a5.26,5.26,0,0,0,.1,1.07"/><path class="cls-2" d="M52.73,161.81a4.77,4.77,0,0,0-.18,1,5.37,5.37,0,0,0,0,1A1.78,1.78,0,0,1,52,165l0,.21a1,1,0,0,1-.56.85,1.64,1.64,0,0,1,.08.36c-.14.12-.58.56-1.34,1.32a6.87,6.87,0,0,1-1.46,1.19h0a10.49,10.49,0,0,1-4.77,1.06c-.15,0-.68-.06-1.59-.17l-.13.18-.28-.17H41.6a1.49,1.49,0,0,1-1.08-.32l-.3.11-.21-.26a2.06,2.06,0,0,1-1.44-.75c-.29-.1-.51-.18-.66-.25-.33-.15-.5-.29-.51-.41a2.18,2.18,0,0,1-.93-.55l0-.15-.26-.16a2,2,0,0,0-.41-.63,3.8,3.8,0,0,1-.43-1.23,6.51,6.51,0,0,1-.21-1.3,1.71,1.71,0,0,1,.13-.57,2.26,2.26,0,0,0,.15-.54l.36-.24a3.61,3.61,0,0,1,.75.62l0,.29a1.45,1.45,0,0,1,.51.48,1.69,1.69,0,0,0,.46.49l.1.44a7.79,7.79,0,0,0,4.75,1.44Q50,166.2,50,161.21a15.15,15.15,0,0,0-.15-1.85c-.14-1-.21-1.57-.23-1.85l-.21-.23,0-.38-.18-.26,0-.1c0-.77-.71-2.52-2.11-5.25l-.36-.1,0-.1a7.24,7.24,0,0,1,.13-1.75,1.17,1.17,0,0,1,1.23-1,2.67,2.67,0,0,1,.52.7,3,3,0,0,0,.53.7l.1-.11a.73.73,0,0,1,.21.41,2.41,2.41,0,0,0,.1.43l.33.15-.05.21c0,.22.07.39.1.51s.17.35.29.38v.16a3.38,3.38,0,0,0,.43,1.56,14.8,14.8,0,0,1,.67,2l.51,2,0,.36.18.23a6.2,6.2,0,0,0,.15.82,5,5,0,0,1,.13.9,1.7,1.7,0,0,1-.08.51l.28.41v.18a3.63,3.63,0,0,0,.18.94"/><path class="cls-2" d="M6.23,169.91a.63.63,0,0,1-.43.26,1.3,1.3,0,0,1-.53-.18c-.23-.11-.31-.23-.24-.35-.33-.29-.49-1-.49-2.07a4.79,4.79,0,0,1,.21-1.7l-.08-.18c.07-.32.1-.49.1-.49,0-.49-.17-.74-.51-.73a2.85,2.85,0,0,0-.68.12,2.93,2.93,0,0,1-.68.12,5.06,5.06,0,0,1-.76-.09,2.85,2.85,0,0,0-.81-.07L.85,164l.05-.21a.41.41,0,0,0-.21-.05,1.44,1.44,0,0,0-.25-.28A4.42,4.42,0,0,1,0,162.13a1.1,1.1,0,0,1,.36-.85l.08,0,.59.56.77,0a11.76,11.76,0,0,0,1.83-.24,5.83,5.83,0,0,0,1.58-.41,10.26,10.26,0,0,0,.27-1.56c.07-.69.15-1.18.21-1.47a1.14,1.14,0,0,1-.12-.52,3.17,3.17,0,0,1,.15-.87c.07-.29.14-.58.23-.87a.71.71,0,0,1-.13-.26v-.28a.67.67,0,0,0-.13-.38,2.44,2.44,0,0,1,.07-.38,2,2,0,0,0,.06-.4.85.85,0,0,0-.2-.51c0-.51.07-.8.07-.87a.9.9,0,0,0-.2-.59l.08-.25-.26-.41a1,1,0,0,1,.1-.44l-.13-.33a.21.21,0,0,0,0-.16.87.87,0,0,0-.15-.4l.21-.47a.3.3,0,0,1,.25-.05l.7-.39c.22.18,1.57.26,4.05.23l2.2.08a4.51,4.51,0,0,1,1.88-.22q5.32-.06,5.79.22l.23-.08a1.42,1.42,0,0,1,.71.2c.25.13.34.3.29.51l.54.78c0,.13,0,.33.1.59a.53.53,0,0,1-.25.19l-.18-.05h0a2.38,2.38,0,0,0,0,.33c0,.15-.53.25-1.6.27h-.51l-.26-.1-.2.18a4.06,4.06,0,0,1-1.19,0,.58.58,0,0,0-.25.19,1.75,1.75,0,0,0-.75-.1h-.8a2.09,2.09,0,0,1-.33-.07l-.33.21a1.89,1.89,0,0,0-.62,0,1.61,1.61,0,0,1-.67-.07c-.1.08-.18.08-.25,0a1.46,1.46,0,0,1-.9.24H12l-.33-.15a3.82,3.82,0,0,1-2,.41l-.82-.1-.46.37a.75.75,0,0,1-.36-.15l-.13.1v.57A6.31,6.31,0,0,0,8,155.27a10.18,10.18,0,0,1,.19,1.43,1.28,1.28,0,0,1-.08.49,2,2,0,0,0,.15.26,24.47,24.47,0,0,1,.44,3.17l.23.08.21-.08a2.68,2.68,0,0,0,1-.17l.18.08a11.88,11.88,0,0,1,2.9-.44,4,4,0,0,1,1.87-.33,9.6,9.6,0,0,0,2.8-.6c0-.13.08-.2.15-.2l.15.07a1.35,1.35,0,0,1,.9-.11.47.47,0,0,1,.36-.16l.16.08,0,1.12a1,1,0,0,1,.36.33l-.08.39-.28,0-.54.46c-.21,0-.31.07-.31.24a.21.21,0,0,0,.05.13l-.59.36a2.48,2.48,0,0,0-1.36.25,5.51,5.51,0,0,1-1.88.63,8.29,8.29,0,0,1-2.14.39l-.29.13-.3,0-.31.11-.26-.05a3.13,3.13,0,0,0-.69.21l-.77-.06-.31.15-.13-.05c-.13.16-.42.22-.87.19a2.19,2.19,0,0,0-.36.78,3.42,3.42,0,0,1-.31.79,5.6,5.6,0,0,1-.71,2.11l.12.36c0,.05-.12.13-.35.24a.7.7,0,0,0,.07.48c0,.7-.17,1.14-.46,1.32v.1l-.54.13"/><path class="cls-2" d="M152.38,152.71a7.37,7.37,0,0,1,.43,1.59,3.81,3.81,0,0,1,.16,1.25,3.7,3.7,0,0,1,.28,1.23,4.16,4.16,0,0,0,.28,1.3.76.76,0,0,0,0,.21,1.32,1.32,0,0,0,.11.49.28.28,0,0,0,0,.15,5.17,5.17,0,0,0,.13.56l-.08.11a.59.59,0,0,1,.07.51,4.81,4.81,0,0,1,.11,1.25,14.5,14.5,0,0,1-.1,2.42,2.08,2.08,0,0,1,.1.79,1.5,1.5,0,0,1-.1.74l.2.28a1.13,1.13,0,0,0-.1.44,3,3,0,0,0,.1.59,2.51,2.51,0,0,1,.11.59s0,.12-.08.36l-.39.29.06.17-.43.5a1.18,1.18,0,0,1-.18.28l-.5-.12c-.32-.32-.55-.48-.7-.48l-.23-.21c-.08-.92-.19-1.9-.32-2.94a5.57,5.57,0,0,0,.12-1.16c0-.17,0-.42,0-.77v-.79l-.1-.08q0-.54,0-1.38v-.57a14.17,14.17,0,0,0-.31-2.15,14.23,14.23,0,0,1-.31-1.92,3.21,3.21,0,0,0-.24-1,4.23,4.23,0,0,1-.27-1,1.39,1.39,0,0,1-.41.93h0l.05.33c-.11.19-.25.44-.41.75a2.65,2.65,0,0,1-.2,1l.13.2-.44.9h-.1l0,.25a.63.63,0,0,1-.05.23,1.12,1.12,0,0,0,0,.21l-.25.16a.56.56,0,0,1,.07.25.35.35,0,0,1-.15.31c-.1.48-.22,1-.34,1.44a2.59,2.59,0,0,1-.64,1.26v.06A12.4,12.4,0,0,1,146,165a6.72,6.72,0,0,0-1.59,2.15l-.39.21-.2.41c-.27-.2-.46-.28-.57-.22l-.28-.21,0-.15-.13,0-.15-.08c0-.08-.27-.44-.7-1.07a3.19,3.19,0,0,1-.43-1.05,5.19,5.19,0,0,0-.31-1.07v-.1a3.89,3.89,0,0,0-.41-1.43l.08-.18a4.6,4.6,0,0,0-.41-2.13,3.21,3.21,0,0,1,.05-.77l-.11-.1c-.12,0-.19.08-.23.23a4.4,4.4,0,0,0,0,.52c0,.29,0,.42,0,.41a4.11,4.11,0,0,1-.33,1.64l.07.31a2.15,2.15,0,0,0-.28,1.21l-.23.38v.34l-.21.2v.11a1.74,1.74,0,0,1-.17.64,2.6,2.6,0,0,0-.21.57l-.15.08a3.1,3.1,0,0,0-.36,1.2,7.94,7.94,0,0,0-.46,1,10.71,10.71,0,0,1-.41,1l.05.07-.16.31h-.18c-.27.26-.4.46-.38.61l-.41.12,0-.2a4.37,4.37,0,0,0-.57-.25l-.13,0-.28-.2,0-.23-.2-.1c0-.14,0-.26,0-.36a1.65,1.65,0,0,0-.1-.62q.36-1.56.84-3.27l-.07-.35.2-.42a24,24,0,0,1,.64-3.62,19.74,19.74,0,0,0,.57-3.08l.15-.24v-.12a3.63,3.63,0,0,1,.28-1.37,6.4,6.4,0,0,0,.41-1.44c.09-.17.21-.42.34-.74v-.16a3.49,3.49,0,0,1,.28-1.1v-.34a4,4,0,0,1,.23-.82,4.24,4.24,0,0,0-.18-.82,9.33,9.33,0,0,0,.34-1.57l.43-.62.28,0q.24,0,.57.42a1.25,1.25,0,0,1,.33.68l.18,0,.36.66-.08.21.16.1,0,.28a.18.18,0,0,1,.07.23c.16.48.3,1,.44,1.43a5.26,5.26,0,0,1,.25,1.49,11.2,11.2,0,0,0,.31,2.18,20.54,20.54,0,0,1,.41,2.2c.07.12.17.29.31.51l-.15.18a1.45,1.45,0,0,1,.07.79c.14.6.24,1.11.31,1.54l0,.23a5,5,0,0,1,.41,1.64,5.81,5.81,0,0,0,.85-1.12q.51-.1,2.25-4.79,1-2.88,2-5.77l-.08-.15a12.34,12.34,0,0,0,.46-1.47,3.3,3.3,0,0,1,.54-1.26,1.73,1.73,0,0,0,.49-.08,3,3,0,0,0,.62.58,5.85,5.85,0,0,1,.69,1.61l.18.07a15.53,15.53,0,0,0,.74,2"/><path class="cls-2" d="M134.42,160.93a4.65,4.65,0,0,0-.18,1,5.34,5.34,0,0,0,0,1,1.78,1.78,0,0,1-.59,1.14l0,.2a1,1,0,0,1-.56.86,1.67,1.67,0,0,1,.08.35l-1.34,1.33a6.87,6.87,0,0,1-1.46,1.19h0a10.62,10.62,0,0,1-4.77,1.05c-.15,0-.69-.05-1.59-.16l-.13.18-.28-.17h-.31a1.49,1.49,0,0,1-1.08-.32l-.3.1-.21-.25a2.06,2.06,0,0,1-1.44-.75l-.66-.25c-.33-.15-.5-.29-.52-.41a2.2,2.2,0,0,1-.92-.55l0-.16-.26-.15a1.9,1.9,0,0,0-.41-.63,3.8,3.8,0,0,1-.43-1.23,6.47,6.47,0,0,1-.21-1.31,1.72,1.72,0,0,1,.13-.56,2.87,2.87,0,0,0,.15-.54l.36-.24a3.31,3.31,0,0,1,.75.62l0,.29a1.45,1.45,0,0,1,.51.48,1.69,1.69,0,0,0,.46.49l.1.44a7.86,7.86,0,0,0,4.75,1.44q7.74-.09,7.74-5.08a15.15,15.15,0,0,0-.15-1.85c-.14-1-.21-1.58-.23-1.85l-.21-.23,0-.38-.18-.26,0-.1q0-1.16-2.1-5.25l-.36-.1,0-.1a7.24,7.24,0,0,1,.13-1.75,1.19,1.19,0,0,1,1.23-1,3.07,3.07,0,0,1,.52.7,2.65,2.65,0,0,0,.53.7l.1-.1a.69.69,0,0,1,.21.41,2.71,2.71,0,0,0,.1.43l.33.15-.05.21a4.59,4.59,0,0,0,.1.51c.07.22.17.35.29.38V151a3.38,3.38,0,0,0,.43,1.56,15.11,15.11,0,0,1,.67,2l.51,2.05,0,.36.17.23c0,.15.07.43.16.82a5.08,5.08,0,0,1,.13.89,1.72,1.72,0,0,1-.08.52l.28.41V160a3.62,3.62,0,0,0,.18,1"/><path class="cls-2" d="M107.62,161a2.12,2.12,0,0,1,.38.08l.36-.11.08.08c.36,0,.83-.06,1.41-.07l.05-.33-.13-.34,0-.1,0-.25c-.1-.07-.16-.28-.16-.64a9.69,9.69,0,0,0-.25-1.49,7.23,7.23,0,0,1-.21-1.25l-.15-.16a2.31,2.31,0,0,1,0-.43v-.08l0,.08,0,0-.1.16h0l.08.18a3,3,0,0,0-.33,1.44l.1.17,0,.24q-.3.07-.36.54a5,5,0,0,1-.3,1.16c-.26.63-.41,1-.44,1.15m6.23-.11c.24,0,.64,0,1.21-.12a7.48,7.48,0,0,1,1.2-.09l.39,0a.37.37,0,0,0,.28.36l0,.36.51.35,0,.21-.12.18v.28l-.77.39a.76.76,0,0,0-.39-.1,2.09,2.09,0,0,0-.51.55,6.92,6.92,0,0,1-.92.14c-.43,0-.66.12-.7.26l-.41.05c0-.06-.07-.1-.18-.1a.19.19,0,0,0-.2.21c0-.05.13.46.41,1.54a12.26,12.26,0,0,1,.87,2.09c0,.17-.08.42-.13.75l-.36.08,0,.17-.2.34a.38.38,0,0,1,.08.23l0,.15-.31.11-.25-.28-.31,0-.18-.28,0-.07-.13,0a2.16,2.16,0,0,1-.83-.69c-.34-.39-.47-.68-.4-.89-.46-.58-.66-.94-.59-1.1a11.6,11.6,0,0,1-.44-1.81,1.11,1.11,0,0,0-.66-.17l-.21.18a4.61,4.61,0,0,0-.84-.07l-.54,0-.21.16c.14,0,0,0-.48,0a.66.66,0,0,0-.47.19.39.39,0,0,0-.12.43l-.11,0a.46.46,0,0,1-.23-.07l-.15-.06,0,0c-.17.68-.38,1.72-.64,3.11l-.18.28a1.93,1.93,0,0,1,.08.46,2.56,2.56,0,0,1-.35.92,1.69,1.69,0,0,0-.29.94l-.28.1-.08-.28a.62.62,0,0,1-.39-.41l0-.1s0,0-.1,0a.69.69,0,0,0-.43.13l-.29-.15a2.91,2.91,0,0,1-.48-1.79s0-.27.1-.69a1,1,0,0,0,0-.67.73.73,0,0,0,.13-.62l.13-.36a1.69,1.69,0,0,1,0-.33l0-.39a.29.29,0,0,1,.23-.1.38.38,0,0,1,.1-.21,1,1,0,0,1,0-.28s0-.06,0-.18c-.39-.34-.91-.8-1.54-1.39a.71.71,0,0,1,0-.23,3.06,3.06,0,0,1,.13-.72.61.61,0,0,1-.2-.39,1.45,1.45,0,0,1,.1-.59,1,1,0,0,1,.49-.23,5.87,5.87,0,0,1,.72.26,3.17,3.17,0,0,0,1,.26c.22,0,.38-.21.46-.62s.08-.65.13-.95l-.1-.18a7.86,7.86,0,0,0,.13-2l.41-.62.43,0a1.35,1.35,0,0,0,.28.33q0-.18.54-2.16a10.52,10.52,0,0,0,.41-2.21v-.31l.24-.28a.8.8,0,0,1,.07-.36,5.21,5.21,0,0,0-.1-1l.2-.28v-.39l.13-.15,0-.82a2.68,2.68,0,0,0,.23-.55l-.23-.33.2-.51.72-.16a.9.9,0,0,1,.56.4c.09.17.18.35.26.54l.59.2a8.39,8.39,0,0,1,.41.84,1,1,0,0,0-.1.23l.28.43,0,.36q.18,0,.18.15a.44.44,0,0,1-.16.26l.16.26v.38q.15.11.15.72a9.15,9.15,0,0,0,.67,3l0,0,0,.71a3.64,3.64,0,0,1,.33,1.18,10,10,0,0,1,.15,1.31,4.66,4.66,0,0,0,.05.54,3.18,3.18,0,0,1,.08.56l.16.15.23.92a2.58,2.58,0,0,1,.56.07l.44-.08.18.15Z"/><path class="cls-2" d="M25.93,161.85a2.26,2.26,0,0,1,.39.07l.35-.11.08.08c.36,0,.83-.06,1.41-.07l.05-.33-.13-.33,0-.11-.05-.25c-.1-.07-.15-.28-.15-.64a10.27,10.27,0,0,0-.26-1.49,7.23,7.23,0,0,1-.21-1.25l-.15-.15a2.51,2.51,0,0,1,0-.44v-.08l0,.08.05,0-.1.16h0l.08.18a3,3,0,0,0-.33,1.44l.1.18,0,.23q-.3.07-.36.54a5,5,0,0,1-.3,1.16,11.12,11.12,0,0,0-.44,1.16m6.23-.12c.24,0,.64,0,1.21-.12a7.48,7.48,0,0,1,1.2-.09l.39,0a.38.38,0,0,0,.28.36l0,.36.51.35,0,.21-.12.18v.28l-.77.39a.87.87,0,0,0-.39-.1,2.09,2.09,0,0,0-.51.55,6.92,6.92,0,0,1-.92.14c-.43,0-.66.12-.7.26l-.41.06c0-.07-.07-.11-.18-.1a.18.18,0,0,0-.2.2c0-.05.14.46.41,1.54a11.41,11.41,0,0,1,.87,2.09c0,.17-.08.42-.13.75l-.36.08.06.18-.21.33a.4.4,0,0,1,.08.23l0,.16-.31.1-.25-.28-.31-.05-.18-.28.05-.07-.13,0a2.11,2.11,0,0,1-.83-.68c-.33-.39-.47-.69-.4-.9-.46-.57-.66-.94-.59-1.09a11.64,11.64,0,0,1-.43-1.82,1.14,1.14,0,0,0-.67-.17L28,165a4.61,4.61,0,0,0-.84-.07l-.54,0-.21.16c.14,0,0,0-.48,0a.67.67,0,0,0-.47.2.37.37,0,0,0-.12.42l-.11,0a.6.6,0,0,1-.23-.06.41.41,0,0,0-.15-.07l0,0c-.17.69-.38,1.72-.64,3.11l-.18.28a1.93,1.93,0,0,1,.08.46,2.5,2.5,0,0,1-.35.92,1.69,1.69,0,0,0-.29.94l-.28.1-.08-.28a.6.6,0,0,1-.39-.4l.06-.11-.11,0a.69.69,0,0,0-.43.13l-.28-.15a2.85,2.85,0,0,1-.49-1.79s0-.26.1-.69a1,1,0,0,0,0-.67.73.73,0,0,0,.13-.62l.13-.36a1.69,1.69,0,0,1,0-.33l0-.39a.33.33,0,0,1,.23-.1.38.38,0,0,1,.1-.21,1,1,0,0,1-.05-.28s0-.06.05-.18c-.39-.34-.91-.8-1.54-1.39a.72.72,0,0,1,0-.23,3.11,3.11,0,0,1,.12-.72.61.61,0,0,1-.2-.39,1.49,1.49,0,0,1,.1-.59,1,1,0,0,1,.49-.23,5.87,5.87,0,0,1,.72.26,3.17,3.17,0,0,0,1,.26c.22,0,.38-.21.46-.62s.08-.64.13-.95l-.1-.18a7.85,7.85,0,0,0,.13-2l.41-.62.43,0a1.18,1.18,0,0,0,.29.33c0-.12.19-.84.53-2.16a10.52,10.52,0,0,0,.41-2.21v-.3l.24-.29a1,1,0,0,1,.07-.36,5.21,5.21,0,0,0-.1-1l.2-.28V151l.13-.15,0-.82a2.82,2.82,0,0,0,.23-.54l-.23-.34.2-.51.72-.16a.9.9,0,0,1,.56.4c.09.17.18.35.26.54l.59.2a8.39,8.39,0,0,1,.41.84,1,1,0,0,0-.1.23l.28.43,0,.36q.18.06.18.15a.44.44,0,0,1-.16.26l.16.26v.38q.15.1.15.72a9.15,9.15,0,0,0,.67,3l0,0,0,.72a3.53,3.53,0,0,1,.33,1.17,10,10,0,0,1,.15,1.31,3.15,3.15,0,0,0,.06.54,4.14,4.14,0,0,1,.07.56l.16.15.23.92a3.4,3.4,0,0,1,.56.07l.44-.08.18.15Z"/></svg>