<?xml version="1.0" encoding="utf-8"?>
<!-- Generator: Adobe Illustrator 24.2.3, SVG Export Plug-In . SVG Version: 6.00 Build 0)  -->
<svg version="1.1" id="Vrstva_1" xmlns="http://www.w3.org/2000/svg" xmlns:xlink="http://www.w3.org/1999/xlink" x="0px" y="0px"
	 viewBox="0 0 151.5 54.2" style="enable-background:new 0 0 151.5 54.2;" xml:space="preserve">
<style type="text/css">
	.st0{fill:#FFFFFF;}
</style>
<g>
	<g>
		<path class="st0" d="M0.9,31.1c0-10.1,0-20.2,0-30.2c32.5,0,65,0,97.4,0c-0.2,0.1-0.4,0.2-0.6,0.2c-1.2,0.1-2.4,0.2-3.5,0.3
			c-1.4,0.2-2.7,0.4-4.1,0.7c-1.1,0.2-2.3,0.2-3.4,0.5c-1.3,0.4-2.6,0.5-4,0.4c-0.7,0-1.4,0.1-2-0.1c-1.7-0.5-3.4-0.4-5.2-0.6
			c-0.6-0.1-1.3,0.2-2,0.2c-1.3,0-2.5,0.2-3.7,0.5c-1.5,0.3-3,0.8-4.5,1.4c-1.2,0.5-2.4,1.1-3.8,1.4c-0.5,0.1-1,0.2-1.4,0.1
			C59,5.6,57.9,5.3,56.8,5c-1.4-0.3-2.8-0.6-4.2-0.8c-2.7-0.3-5.4,0.2-8,0.8c-3,0.7-6,1.5-9,2.4c-0.3,0.1-0.6,0.1-0.8,0
			c-1-0.2-2.1-0.4-3.1-0.7c-1.8-0.5-3.6-0.7-5.5-0.7c-1.4,0-2.7,0.3-4,1c-1,0.5-2,0.9-3,1.4c-3,1.4-6.1,2.9-9.1,4.3
			c-1.7,0.8-3.3,1.7-4.9,2.6C4.1,16,3,16.6,1.9,17.2c-0.3,0.2-0.7,0.4-0.8,1c0.3-0.2,0.6-0.3,0.8-0.4c2-1.1,3.9-2.2,6-3.2
			c3-1.5,6-2.9,9-4.3c2-0.9,3.9-1.9,5.9-2.8c0.8-0.4,1.7-0.7,2.6-0.8c1.6-0.2,3.3-0.1,4.9,0.3c1.5,0.4,3,0.8,4.6,1.1
			c0.4,0.1,0.9,0,1.3-0.1c1.6-0.4,3.1-0.9,4.7-1.3c1.8-0.5,3.6-1,5.5-1.3C47.5,5,49,4.6,50.4,4.7c0.9,0,1.8,0.1,2.7,0.2
			c1.5,0.2,2.9,0.6,4.4,0.9c0.9,0.2,1.7,0.4,2.6,0.6c1.3,0.2,2.5-0.3,3.7-0.7c0.8-0.3,1.5-0.7,2.3-1c2-0.9,4.2-1.4,6.4-1.5
			c2.6-0.2,5.3-0.3,7.9,0.4c0.6,0.2,1.3,0.2,2,0.3c1.6,0.2,3-0.4,4.6-0.6c1.1-0.1,2.2-0.4,3.2-0.6c1.3-0.2,2.7-0.3,4-0.5
			c1.4-0.2,2.8-0.5,4.2-0.5c0.3,0,0.6-0.1,0.9-0.1c0.6,0,1.2,0,1.8,0c0.3,0,0.6,0.1,0.9,0.1c1.2,0.1,2.4,0.2,3.6,0.3
			c0.1,0,0.2,0.1,0.3,0.1c0.9,0.1,1.7,0.3,2.6,0.4c0.9,0.1,1.7,0.2,2.6,0.3c1.3,0.2,2.5,0.5,3.8,0.7c1.3,0.2,2.6,0.3,3.9,0.5
			c1.7,0.3,3.4,0.6,5.1,0.9c1.2,0.2,2.5,0.5,3.7,0.7c1.1,0.2,2.3,0.3,3.4,0.5c1.1,0.2,2.2,0.3,3.3,0.5c1.3,0.3,2.7,0.6,4,0.9
			c0.4,0.1,0.9,0.1,1.4-0.1c-0.2-0.2-0.4-0.3-0.5-0.3c-0.9-0.2-1.9-0.3-2.8-0.5c-1.5-0.3-3-0.5-4.5-0.8c-1.6-0.3-3.2-0.6-4.8-0.9
			c-1.2-0.2-2.5-0.5-3.7-0.7c-1-0.2-2-0.4-3-0.5c-1.2-0.2-2.5-0.3-3.7-0.5c-2-0.3-4-0.6-5.9-0.9c-0.8-0.1-1.6-0.2-2.3-0.3
			c-1-0.1-1.9-0.3-2.9-0.4c-1-0.1-2-0.2-3.1-0.3c0,0-0.1-0.1-0.1-0.2c16.8,0,33.6,0,50.4,0c0,18.2,0,36.3,0,54.5
			c-50.6,0-101.1,0-151.7,0c0-7.9,0-15.8,0-23.8c0.2,0,0.5,0,0.7-0.1c0.8-0.5,1.6-1.1,2.4-1.6c0.8-0.5,1.5-0.9,2.5-1.2
			c0,5,0,9.8,0,14.7c1.6,0,3,0.1,4.6-0.1c0-3.4,0-6.7,0-10c1.5,0,2.9,0,4.3,0c1.4,0,2.9,0,4.3,0c0-1,0-2,0-2.9
			c0-0.5-0.2-0.7-0.7-0.7c-0.2,0-0.5,0-0.7,0c-2.1,0-4.2,0-6.4,0c-0.3,0-0.5-0.1-0.8-0.1c0-1.2,0-2.3,0-3.4c0.3-0.1,0.6-0.2,0.9-0.4
			c1.8-0.9,3.6-1.8,5.5-2.6c0.3-0.2,0.8-0.2,1.1-0.3c0.8,0,1.6,0,2.4,0c0-0.3,0-0.5,0.1-0.6c0.1-0.2,0.2-0.5,0.4-0.5
			c1.9-0.4,3.8-0.9,5.7-1.2c1.3-0.2,2.6-0.5,3.9-0.6c0.7-0.1,1.4-0.1,2.1-0.2c0.7-0.1,1.5-0.2,2.2-0.2c2.5,0,5,0,7.4,0
			c0.6,0,1.2,0.1,1.8,0.2c0.2,1.4,0.8,2.4,2.1,2.6c1.5,0.3,2.4-0.2,3.4-2.1c0.5,0.1,0.9,0.1,1.4,0.2c0.9,0.1,1.9,0.1,2.8,0.3
			c1.2,0.3,2.4,0.4,3.6,0.4c0.3,0,0.6,0,0.8,0c1.4,0.4,2.8,0.1,4.2,0.4c0.7,0.1,1.4,0,2.1,0.2c0.5,0.1,1.2,0,1.8,0
			c0-1.5,0-2.8,0-4.3c-0.3-0.1-0.6-0.1-0.8-0.2c0.8,0.1,1.1-0.4,1.2-1.1c0.1-0.6,0.3-1.1,0.5-1.7c1.3,2.1,1.8,4.2,1.4,6.6
			c-0.2,0.2-0.4,0.3-0.7,0.6c0.4,0.1,0.7,0.2,0.9,0.3c0.4,0,0.9-0.1,1.3,0c1.5,0.4,3.1,0.1,4.6,0.4c1.2,0.2,2.3,0.2,3.6,0.3
			c0,0.5,0,0.9,0,1.3c0,0.6-0.1,0.7-0.7,0.7c-0.6,0-1.1,0-1.7,0c-0.4,0-0.7,0.2-0.7,0.6c0,0.9-0.1,1.8,0.1,2.7
			c1,0.2,1.9-0.1,2.8,0.2c0,3.5,0,6.9,0,10.3c0,0.9,0.2,1.7,0.5,2.5c0.2,0.5,0.6,1,1.1,1.4c1.8,1.4,3.9,1.1,6,1.1
			c0.4-0.4,1.1,0,1.3-0.5c0.1-0.3-0.1-0.7-0.1-1.1c0-0.7-0.1-1.3-0.4-1.9c-1.4,0.3-1.9,0.3-2.6,0c-1-0.3-1.1-0.5-1.1-1.4
			c0-3.3,0-6.6,0-10c0-0.1,0-0.2,0.1-0.4c1.2,0,2.4,0,3.7,0c0-1.2,0-2.2,0-3.4c-1.3,0-2.5,0-3.7,0c0-0.7,0-1.3,0-1.8
			c0.8-0.1,1.5-0.3,2.2-0.3c0.9,0,1.8-0.3,2.7-0.4c1-0.2,2-0.6,3.1-0.6c0.7,0,1.3-0.2,2-0.3c0.9-0.1,1.7-0.3,2.6-0.4
			c1-0.1,2-0.1,2.9-0.3c1.2-0.3,2.5,0,3.6-0.4c2.2,0.1,4.4-0.2,6.6,0.2c1.3,0.2,2.6,0.2,3.9,0.2c0.6,1.2,1.5,1.7,2.8,1.5
			c0.5-0.1,1.1-0.3,1.5-0.7c0.3-0.2,0.6-0.3,1-0.3c1.5,0.1,3.1,0.2,4.6,0.3c0.1,0,0.2,0,0.2,0c0.8,0.1,1.6,0.3,2.4,0.4
			c1.2,0.2,2.4,0.4,3.6,0.7c0.9,0.2,1.8,0.4,2.8,0.5c1.2,0.2,2.3,0.4,3.5,0.7c1.1,0.2,2.1,0.5,3.2,0.7c0.1-0.5-0.2-0.6-0.5-0.7
			c-2.3-0.5-4.6-1-6.9-1.5c-1.5-0.3-2.9-0.5-4.4-0.8c-1.6-0.3-3.2-0.6-4.8-0.7c-1-0.1-2-0.2-3.1-0.2c-0.3,0-0.6-0.2-0.9-0.3
			c-0.1-0.8,0.1-1.7-0.4-2.3c-0.5-0.7-1.2-1.1-2.1-1.2c-0.7-0.1-1.3,0.3-1.9,0.7c-0.8,0.6-0.9,1.7-1,2.6c-1.4-0.1-2.8-0.3-4.2-0.3
			c-3.5-0.1-6.9-0.1-10.3,0.4c-1.5,0.2-3.1,0.3-4.6,0.5c-0.7,0.1-1.3,0.2-2,0.3c-1.6,0.3-3.1,0.7-4.7,1c-1.1,0.2-2.2,0.1-3.4,0.2
			c0-0.5,0-0.9,0-1.2c0-0.4-0.2-0.7-0.7-0.7c-1.1,0-2.2,0-3.3,0c-0.2,0.7-0.3,1.3-0.4,2c-0.8-0.1-1.6-0.2-2.3-0.3
			c-1.1-0.1-2.3-0.2-3.4-0.3c-0.2,0-0.3-0.1-0.4-0.1c-0.5-0.3-1-0.3-1.6-0.3c-0.4,0-0.8,0-1.2,0c0-1.2,0-2.2,0-3.3
			c0-0.3,0.1-0.6,0-0.8c-0.6-1.4-1.1-2.8-1.7-4.2c-0.2,0-0.2,0-0.2,0c-1.9,0.4-3.7,1.1-5.6,1.2c-0.1,0-0.2,0.1-0.3,0.1
			c-1.3,0.7-2.8,1-4.3,1.3c-0.6,0.1-1.2,0.4-1.6,0.9c-0.6,0.8-1.2,1.6-1.8,2.4c0.5,0.6,0.5,0.6,0.3,1.3c-0.7-0.1-1.5-0.2-2.2-0.3
			c-0.8-0.1-1.6-0.2-2.3-0.3c-0.2-1.4-1-2.3-2.2-2.5c-1.5-0.3-2.5,0.7-3.2,1.9c-0.5,0-0.9,0-1.4,0c-3.5,0.1-7.1-0.2-10.6,0.2
			c-1.8,0.2-3.7,0.4-5.5,0.7c-1.8,0.3-3.5,0.7-5.3,1.2c-0.2,0.1-0.5,0-0.8,0c0-0.7-0.1-1.3-0.1-1.9c-0.4,0-0.8,0-1.2,0
			c-4,0-8,0-12,0c-1.3,0-1.5-0.1-1.4,1.5c0,2.4,0,4.7,0,7.1c-0.1,0.1-0.2,0.2-0.3,0.2c-1.7,0.9-3.4,1.8-5,3
			C1.1,31.1,1,31.1,0.9,31.1z M49.6,40.4c0.3,1.2,0.8,3,1.4,4c1.5,2.6,3.2,4.9,5.4,6.9c0.6,0.5,1.2,1,1.8,1.6
			c0.3,0.2,0.5,0.3,0.7-0.1c-1.2-1.4-2.8-2.3-3.9-3.7c-1-1.3-2-2.5-2.9-3.9c-1.5-2.4-2.3-5-1.8-7.8c0.2-1.5,0.7-2.8,1.5-4.1
			c1.2-1.9,2.6-3.6,4.5-4.9c0,1,0,2,0,3c0,1,0,2,0,3c0,1,0,2.1,0,3.1c0,1,0,2,0,3c0,1-0.1,2,0.1,3c0.7,0,1.4,0,2.1,0
			c0.7,0,1.4,0.1,2.2-0.1c0-4.4,0-8.7,0-13c0.7-0.7,1.3-1.5,2.2-1.8c1-0.4,2-0.6,3.1-0.1c0.7,0.3,1,0.9,1.2,1.5
			c0.3,1.1,0.2,2.2,0.2,3.3c0,3.1,0,6.2,0,9.2c0,0.3,0.1,0.6,0.1,0.9c0.8,0,1.5,0,2.1,0c0.7,0,1.4,0.1,2.1-0.1c0-0.3,0-0.6,0-0.9
			c0-3.9,0-7.8,0-11.6c0-0.8-0.2-1.6-0.4-2.4c-0.7-2.4-3.1-3.5-5-3.7c-2.1-0.1-4,0.4-5.6,1.8c0,0-0.1,0-0.2,0
			c-0.1-0.3-0.2-0.6-0.3-1c1.8-1,3.6-2,5.4-2.9c-5.4,0.9-10.6,2.4-15.8,4.3c-0.2-0.6,0.1-1.2-0.3-1.7c-2.1,0-4.2,0-6.3,0
			c-0.1,0-0.1,0.1-0.3,0.1c0,1,0,2.1,0,3.2c0.8,0,1.5,0,2.6,0c-1.4,0.7-2.6,1.3-3.7,1.9c-1.1,0.6-2.2,1.2-3.4,1.9
			c-0.1-1-0.2-1.9-0.3-2.8C38,28.6,37.6,27.8,37,27c-1.2-1.7-3-2.2-4.9-2.4c-1.1-0.1-2.2-0.1-3.3,0.2c-1.3,0.3-2.5,0.7-3.7,1.2
			c-0.4,0.2-0.8,0.4-1,0.9c0.2,0.4,0.4,0.9,0.6,1.3c0.2,0.4,0.5,0.9,0.7,1.3c0.7-0.3,1.3-0.7,2-0.8c1.1-0.3,2.3-0.6,3.5-0.6
			c2,0.1,3.1,1.3,2.9,2.9c0,0.3,0,0.7,0,1.1c-1.2,0-2.3,0-3.4,0c-1.2,0-2.4,0.2-3.6,0.6c-3.6,1.3-4.2,4.1-3.6,7.1
			c0.5,2.1,2,3.2,4,3.8c0.2,0.1,0.4,0.2,0.6,0.3c-0.4,1.1-0.8,2-1.2,3c0,0.1,0.1,0.3,0.3,0.7c0.6-1.4,1-2.6,1.5-3.8
			c3,0.1,3.9-0.5,6-1.9c0.1,0.4,0.3,0.9,0.4,1.4c1.2-0.1,2.3,0.1,3.5-0.1c0-3.4,0-6.8,0-10.1c1-0.9,4.9-3.1,6.9-3.9
			c0,0.1,0,0.2,0,0.2c0,5.4,0,10.9,0,16.3c0,0.1,0,0.2,0,0.2c-0.1,0.9-0.4,1.3-1.4,1.3c-0.4,0-0.8,0-1.2,0c-0.1,0.5-0.2,0.9-0.3,1.3
			c-0.1,0.5-0.1,0.9-0.1,1.4c1.4,0.7,2.8,0.7,4.2,0.3c1.8-0.5,3.1-1.8,3.1-4C49.7,44.4,49.6,42.4,49.6,40.4z M128.3,26.9
			c0-0.4,0-0.7,0-0.9c-0.1-0.7-0.2-0.8-0.8-0.9c-0.8,0-1.7,0-2.5,0c-0.5,0-0.7,0.2-0.7,0.7c0,0.2,0,0.3,0,0.5c0,5.4,0,10.8,0,16.2
			c0,0.3,0,0.5,0.1,0.9c1.5,0,3,0,4.5,0c0-0.5,0-0.9,0-1.3c0-3.6,0-7.3,0-10.9c0-0.7,0.2-1.3,0.7-1.8c0.6-0.6,1.3-1,2.1-1.2
			c1.3-0.3,2.6,0.6,2.7,1.9c0,0.4,0,0.8,0,1.2c0,3.7,0,7.4,0,11.2c0,0.3,0,0.6,0.1,1c0.8,0,1.5,0,2.2,0c0.7,0,1.5,0.1,2.3-0.1
			c0-0.5,0-0.9,0-1.3c0-3.6,0-7.3,0-10.9c0-0.7,0.2-1.3,0.7-1.8c0.6-0.5,1.2-0.8,1.9-1.1c1.1-0.5,2.5,0.4,2.8,1.4
			c0.2,0.6,0.2,1.2,0.3,1.9c0,3.6,0,7.3,0,10.9c0,0.3,0,0.6,0.1,1c0.7,0,1.4,0,2.1,0c0.7,0,1.4,0,2.1,0c0-0.2,0.1-0.3,0.1-0.5
			c0-4.3,0.1-8.6,0-12.8c-0.1-2.2-1.1-4-3.3-5c-2.2-1-5-0.5-6.6,1.1c-0.3,0.3-0.6,0.7-1,1.1C136,24,131.3,23.7,128.3,26.9z
			 M106.3,43.3c0-4.5,0-8.9,0-13.3c0-1.3-0.6-2.5-1.5-3.5c-1.3-1.3-3-1.7-4.7-1.9c-1.5-0.2-3.1,0-4.6,0.5c-1.2,0.3-2.3,0.8-3.3,1.6
			c0.5,0.9,0.9,1.8,1.4,2.8c0.3-0.2,0.6-0.3,0.9-0.4c1.5-0.6,3-1.1,4.7-1c1.6,0.1,2.6,0.8,2.8,2.3c0.1,0.5,0,1.1,0,1.7
			c-0.9,0-1.7,0-2.4,0c-1,0-2,0-3,0.2c-1,0.2-2,0.5-2.9,1c-1.7,0.9-2.6,2.3-2.5,4.2c0,0.5,0,1,0,1.6c0,1.4,0.6,2.6,1.7,3.4
			c1.8,1.4,3.9,1.7,6.1,1.3c1.3-0.2,2.5-0.9,3.7-1.8c0.1,0.5,0.2,1,0.3,1.4C103.9,43.3,105,43.3,106.3,43.3z M111.1,25.1
			c0,1.2,0,2.2,0,3.4c0.7,0,1.4,0,2.1,0c0,6.2,0,12.3,0,18.3c-0.7,0.7-1.5,0.6-2.5,0.4c-0.1,0.9-0.2,1.8-0.3,2.8
			c0.2,0.1,0.5,0.4,0.9,0.4c1.3,0.2,2.6,0.2,3.9-0.2c0.3-0.1,0.6-0.3,0.9-0.6c1.2-1,1.7-2.3,1.7-3.8c0-6.7,0-13.3,0-20
			c0-0.3-0.1-0.5-0.1-0.8C115.5,25.1,113.3,25.1,111.1,25.1z"/>
		<path d="M0.9,31.1c0.1,0,0.2,0,0.2,0c1.5-1.2,3.3-2.1,5-3c0.1-0.1,0.2-0.1,0.3-0.2c0-2.4,0-4.7,0-7.1c0-1.6,0.1-1.5,1.4-1.5
			c4,0,8,0,12,0c0.4,0,0.7,0,1.2,0c0,0.6,0.1,1.2,0.1,1.9c0.3,0,0.6,0,0.8,0c1.7-0.5,3.5-0.8,5.3-1.2c1.8-0.3,3.7-0.5,5.5-0.7
			c3.5-0.4,7.1-0.1,10.6-0.2c0.4,0,0.9,0,1.4,0c0.7-1.2,1.7-2.2,3.2-1.9c1.3,0.2,2,1.2,2.2,2.5c0.8,0.1,1.6,0.2,2.3,0.3
			c0.7,0.1,1.5,0.2,2.2,0.3c0.1-0.6,0.1-0.6-0.3-1.3c0.6-0.8,1.2-1.6,1.8-2.4c0.4-0.6,1-0.8,1.6-0.9c1.5-0.3,2.9-0.6,4.3-1.3
			c0.1-0.1,0.2-0.1,0.3-0.1c1.9-0.1,3.7-0.8,5.6-1.2c0,0,0.1,0,0.2,0c0.6,1.4,1.1,2.8,1.7,4.2c0.1,0.2,0,0.6,0,0.8
			c0,1.1,0,2.1,0,3.3c0.4,0,0.8,0.1,1.2,0c0.6,0,1.1,0,1.6,0.3c0.1,0.1,0.3,0.1,0.4,0.1c1.1,0.1,2.3,0.2,3.4,0.3
			c0.7,0.1,1.5,0.2,2.3,0.3c0.1-0.6,0.3-1.2,0.4-2c1.1,0,2.2,0,3.3,0c0.4,0,0.7,0.2,0.7,0.7c0,0.4,0,0.8,0,1.2
			c1.2-0.1,2.3,0,3.4-0.2c1.6-0.3,3.1-0.7,4.7-1c0.7-0.1,1.3-0.2,2-0.3c1.5-0.2,3.1-0.3,4.6-0.5c3.4-0.6,6.9-0.5,10.3-0.4
			c1.4,0,2.8,0.2,4.2,0.3c0.1-0.9,0.2-2,1-2.6c0.5-0.4,1.1-0.7,1.9-0.7c0.9,0.1,1.6,0.5,2.1,1.2c0.5,0.7,0.3,1.5,0.4,2.3
			c0.3,0.1,0.6,0.3,0.9,0.3c1,0,2.1,0.1,3.1,0.2c1.6,0.1,3.2,0.4,4.8,0.7c1.5,0.3,2.9,0.5,4.4,0.8c2.3,0.5,4.6,1,6.9,1.5
			c0.3,0.1,0.6,0.2,0.5,0.7c-1.1-0.3-2.1-0.5-3.2-0.7c-1.2-0.2-2.3-0.5-3.5-0.7c-0.9-0.2-1.8-0.4-2.8-0.5c-1.2-0.2-2.4-0.4-3.6-0.7
			c-0.8-0.1-1.6-0.3-2.4-0.4c-0.1,0-0.2,0-0.2,0c-1.5-0.1-3.1-0.2-4.6-0.3c-0.4,0-0.7,0.1-1,0.3c-0.4,0.3-1,0.6-1.5,0.7
			c-1.2,0.2-2.2-0.3-2.8-1.5c-1.3-0.1-2.6,0-3.9-0.2c-2.2-0.4-4.4-0.1-6.6-0.2c-1.2,0.4-2.4,0.1-3.6,0.4c-0.9,0.2-2,0.2-2.9,0.3
			c-0.9,0.1-1.7,0.3-2.6,0.4c-0.7,0.1-1.3,0.3-2,0.3c-1.1,0-2.1,0.4-3.1,0.6c-0.9,0.2-1.8,0.4-2.7,0.4c-0.7,0-1.4,0.2-2.2,0.3
			c0,0.6,0,1.1,0,1.8c1.2,0,2.5,0,3.7,0c0,1.2,0,2.2,0,3.4c-1.3,0-2.5,0-3.7,0c0,0.2-0.1,0.3-0.1,0.4c0,3.3,0,6.6,0,10
			c0,1,0.1,1.1,1.1,1.4c0.7,0.2,1.2,0.2,2.6,0c0.4,0.6,0.4,1.2,0.4,1.9c0,0.4,0.2,0.8,0.1,1.1c-0.2,0.5-0.9,0.2-1.3,0.5
			c-2.1,0-4.1,0.3-6-1.1c-0.5-0.4-0.9-0.8-1.1-1.4c-0.3-0.8-0.5-1.6-0.5-2.5c0-3.4,0-6.8,0-10.3c-0.9-0.3-1.8,0-2.8-0.2
			c-0.1-0.9,0-1.8-0.1-2.7c0-0.4,0.3-0.6,0.7-0.6c0.6,0,1.1,0,1.7,0c0.6,0,0.7-0.1,0.7-0.7c0-0.4,0-0.9,0-1.3
			c-1.2-0.1-2.4-0.1-3.6-0.3c-1.5-0.3-3.1,0-4.6-0.4c-0.4-0.1-0.9,0-1.3,0c-0.3,0-0.5-0.1-0.9-0.3c0.3-0.3,0.5-0.4,0.7-0.6
			c0.4-2.3-0.1-4.5-1.4-6.6c-0.2,0.6-0.4,1.1-0.5,1.7c-0.1,0.7-0.4,1.2-1.2,1.1c0.3,0,0.5,0.1,0.8,0.2c0,1.4,0,2.8,0,4.3
			c-0.6,0-1.3,0.1-1.8,0c-0.7-0.2-1.4-0.1-2.1-0.2c-1.4-0.3-2.8,0-4.2-0.4c-0.3-0.1-0.6,0-0.8,0c-1.2,0-2.4-0.2-3.6-0.4
			c-0.9-0.2-1.9-0.2-2.8-0.3c-0.5,0-0.9-0.1-1.4-0.2c-1,1.8-1.9,2.4-3.4,2.1c-1.3-0.3-1.9-1.3-2.1-2.6c-0.6-0.1-1.2-0.2-1.8-0.2
			c-2.5,0-5,0-7.4,0c-0.7,0-1.5,0.2-2.2,0.2c-0.7,0.1-1.4,0.1-2.1,0.2c-1.3,0.1-2.6,0.3-3.9,0.6c-1.9,0.3-3.8,0.8-5.7,1.2
			c-0.2,0-0.3,0.3-0.4,0.5C21,22.5,21,22.7,21,23c-0.9,0-1.7,0-2.4,0c-0.4,0-0.8,0.1-1.1,0.3c-1.8,0.8-3.6,1.7-5.5,2.6
			c-0.3,0.1-0.6,0.2-0.9,0.4c0,1.1,0,2.2,0,3.4c0.2,0,0.5,0.1,0.8,0.1c2.1,0,4.2,0,6.4,0c0.2,0,0.5,0,0.7,0c0.6,0,0.7,0.2,0.7,0.7
			c0,0.9,0,1.8,0,2.9c-1.5,0.1-2.9,0-4.3,0c-1.4,0-2.8,0-4.3,0c0,3.4,0,6.7,0,10c-1.6,0.1-3,0-4.6,0.1c0-4.9,0-9.7,0-14.7
			c-1,0.3-1.8,0.7-2.5,1.2c-0.8,0.5-1.6,1.1-2.4,1.6c-0.2,0.1-0.5,0.1-0.7,0.1C0.9,31.4,0.9,31.3,0.9,31.1z M66.6,21.5
			c0-1.2,0.1-2.2-0.1-3.4c-0.5,0.1-1,0.2-1.4,0.3c-1.2,0.1-2.4,0.2-3.7,0.3c-0.1,0-0.2,0-0.4,0c-1.2,0.3-2.5,0.2-3.7,0.4
			c-0.6,0.1-1.3,0.2-2,0.3c0,0.5,0.1,0.8,0.1,1.1c0.8,0.1,1.6,0.2,2.3,0.3c1.5,0.1,3,0.2,4.5,0.3c0.1,0,0.3,0,0.4,0
			c0.6,0.4,1.3,0.1,1.9,0.2C65.2,21.3,65.8,21.4,66.6,21.5z M67.7,13.8c-1.7,0.4-3.1,0.7-4.5,1c-0.3,0.1-0.6,0.2-0.7,0.4
			c-0.5,0.8-1.1,1.5-1.3,2.4c1.9-0.2,3.7-0.5,5.6-0.7C67.1,15.9,67.4,14.9,67.7,13.8z M55.4,18.7c1.7-0.3,3.2-0.6,4.7-0.8
			c0.5-0.8,0.9-1.5,1.4-2.3c-0.3,0-0.5,0-0.7,0c-1,0.3-2,0.7-3,0.8c-0.6,0.1-0.9,0.4-1.3,0.8C56.1,17.6,55.8,18.1,55.4,18.7z
			 M11.1,23c0,0.9,0,1.7,0,2.6c1.8-0.9,3.6-1.7,5.6-2.6C14.6,23,12.9,23,11.1,23z"/>
		<path d="M102.2,0.9c0,0.1,0.1,0.2,0.1,0.2c1,0.1,2,0.2,3.1,0.3c1,0.1,1.9,0.3,2.9,0.4c0.8,0.1,1.6,0.2,2.3,0.3
			c2,0.3,4,0.6,5.9,0.9c1.2,0.2,2.5,0.3,3.7,0.5c1,0.1,2,0.3,3,0.5c1.2,0.2,2.5,0.5,3.7,0.7c1.6,0.3,3.2,0.6,4.8,0.9
			c1.5,0.3,3,0.5,4.5,0.8c0.9,0.2,1.9,0.3,2.8,0.5c0.1,0,0.3,0.2,0.5,0.3c-0.5,0.2-1,0.2-1.4,0.1c-1.3-0.3-2.7-0.6-4-0.9
			c-1.1-0.2-2.2-0.4-3.3-0.5c-1.1-0.2-2.3-0.3-3.4-0.5c-1.2-0.2-2.5-0.5-3.7-0.7c-1.7-0.3-3.4-0.6-5.1-0.9c-1.3-0.2-2.6-0.3-3.9-0.5
			c-1.3-0.2-2.5-0.5-3.8-0.7c-0.9-0.1-1.7-0.2-2.6-0.3c-0.9-0.1-1.7-0.3-2.6-0.4c-0.1,0-0.2-0.1-0.3-0.1c-1.2-0.1-2.4-0.2-3.6-0.3
			c-0.3,0-0.6-0.1-0.9-0.1c-0.6,0-1.2,0-1.8,0c-0.3,0-0.6,0.1-0.9,0.1c-1.4,0-2.8,0.2-4.2,0.5c-1.3,0.2-2.7,0.3-4,0.5
			C89.2,2.7,88.1,3,87,3.2c-1.5,0.2-3,0.7-4.6,0.6c-0.7-0.1-1.3-0.1-2-0.3c-2.6-0.7-5.3-0.6-7.9-0.4c-2.2,0.1-4.3,0.7-6.4,1.5
			c-0.8,0.3-1.5,0.7-2.3,1c-1.2,0.4-2.4,0.9-3.7,0.7c-0.9-0.1-1.8-0.4-2.6-0.6c-1.5-0.3-2.9-0.7-4.4-0.9c-0.9-0.1-1.8-0.1-2.7-0.2
			C49,4.6,47.5,5,46.1,5.3c-1.8,0.4-3.7,0.9-5.5,1.3C39.1,7,37.6,7.5,36,7.9C35.6,8,35.1,8.1,34.7,8c-1.5-0.3-3-0.7-4.6-1.1
			c-1.6-0.4-3.2-0.4-4.9-0.3c-0.9,0.1-1.8,0.4-2.6,0.8c-2,0.9-3.9,1.9-5.9,2.8c-3,1.4-6,2.8-9,4.3c-2,1-4,2.1-6,3.2
			c-0.2,0.1-0.5,0.2-0.8,0.4c0.1-0.6,0.4-0.8,0.8-1C3,16.6,4.1,16,5.2,15.4c1.6-0.9,3.3-1.8,4.9-2.6c3-1.5,6.1-2.9,9.1-4.3
			c1-0.5,2-0.9,3-1.4c1.3-0.6,2.6-1,4-1c1.9,0,3.7,0.1,5.5,0.7c1,0.3,2.1,0.5,3.1,0.7c0.3,0.1,0.6,0,0.8,0c3-0.9,6-1.7,9-2.4
			c2.6-0.6,5.3-1.1,8-0.8C54,4.4,55.4,4.7,56.8,5c1.1,0.2,2.3,0.6,3.4,0.8c0.5,0.1,1,0,1.4-0.1c1.3-0.3,2.5-0.8,3.8-1.4
			c1.4-0.6,2.9-1.1,4.5-1.4c1.2-0.3,2.5-0.5,3.7-0.5c0.7,0,1.3-0.3,2-0.2C77.3,2.6,79,2.5,80.7,3c0.6,0.2,1.3,0.1,2,0.1
			c1.4,0,2.7-0.1,4-0.4c1.1-0.3,2.2-0.4,3.4-0.5c1.4-0.2,2.7-0.5,4.1-0.7c1.2-0.2,2.4-0.2,3.5-0.3c0.2,0,0.4-0.1,0.6-0.2
			C99.6,0.9,100.9,0.9,102.2,0.9z"/>
		<path d="M49.6,40.4c0,2,0,4.1,0,6.1c0,2.2-1.2,3.5-3.1,4c-1.3,0.4-2.8,0.4-4.2-0.3c0-0.5,0-1,0.1-1.4c0.1-0.4,0.2-0.8,0.3-1.3
			c0.4,0,0.8,0,1.2,0c0.9,0,1.3-0.4,1.4-1.3c0-0.1,0-0.2,0-0.2c0-5.4,0-10.9,0-16.3c0-0.1,0-0.2,0-0.2c-2,0.8-6,2.9-6.9,3.9
			c0,3.3,0,6.7,0,10.1c-1.2,0.2-2.3,0-3.5,0.1c-0.2-0.5-0.3-0.9-0.4-1.4c-2.1,1.4-3,1.9-6,1.9c-0.5,1.2-0.9,2.4-1.5,3.8
			c-0.2-0.4-0.3-0.6-0.3-0.7c0.4-1,0.7-2,1.2-3c-0.2-0.1-0.4-0.2-0.6-0.3c-2-0.5-3.5-1.7-4-3.8c-0.7-3.1-0.1-5.8,3.6-7.1
			c1.2-0.4,2.3-0.7,3.6-0.6c1.1,0,2.2,0,3.4,0c0-0.4,0-0.8,0-1.1c0.2-1.6-0.9-2.9-2.9-2.9c-1.2,0-2.3,0.3-3.5,0.6
			c-0.6,0.2-1.2,0.5-2,0.8c-0.2-0.4-0.5-0.8-0.7-1.3c-0.2-0.4-0.4-0.9-0.6-1.3c0.2-0.5,0.6-0.7,1-0.9c1.2-0.5,2.4-0.9,3.7-1.2
			c1.1-0.2,2.2-0.3,3.3-0.2c1.9,0.1,3.7,0.7,4.9,2.4c0.6,0.8,0.9,1.6,1.1,2.5c0.1,0.9,0.2,1.8,0.3,2.8c1.1-0.6,2.2-1.3,3.4-1.9
			c1.1-0.6,2.3-1.2,3.7-1.9c-1,0-1.8,0-2.6,0c0-1.2,0-2.2,0-3.2c0.1-0.1,0.2-0.1,0.3-0.1c2.1,0,4.2,0,6.3,0c0.4,0.5,0,1.1,0.3,1.7
			c5.2-1.8,10.4-3.4,15.8-4.3c-1.8,1-3.6,1.9-5.4,2.9c0.1,0.4,0.2,0.7,0.3,1c0.1,0,0.2,0,0.2,0c1.6-1.4,3.5-1.9,5.6-1.8
			c1.9,0.1,4.3,1.3,5,3.7c0.2,0.8,0.4,1.6,0.4,2.4c0,3.9,0,7.8,0,11.6c0,0.3,0,0.6,0,0.9c-0.7,0.2-1.4,0.1-2.1,0.1
			c-0.7,0-1.4,0-2.1,0c0-0.3-0.1-0.6-0.1-0.9c0-3.1,0-6.2,0-9.2c0-1.1,0-2.2-0.2-3.3c-0.2-0.7-0.5-1.2-1.2-1.5c-1-0.5-2-0.3-3.1,0.1
			c-0.9,0.4-1.5,1.2-2.2,1.8c0,4.3,0,8.6,0,13c-0.7,0.2-1.4,0.1-2.2,0.1c-0.7,0-1.4,0-2.1,0c-0.2-1-0.1-2-0.1-3c0-1,0-2,0-3
			c0-1,0-2.1,0-3.1c0-1,0-2,0-3c0-1,0-2,0-3c-2,1.3-3.4,3-4.5,4.9c-0.8,1.2-1.2,2.6-1.5,4.1c-0.4,2.9,0.3,5.4,1.8,7.8
			c0.9,1.4,1.9,2.6,2.9,3.9c1.1,1.4,2.6,2.4,3.9,3.7c-0.2,0.4-0.5,0.3-0.7,0.1c-0.6-0.5-1.2-1-1.8-1.6c-2.2-2-3.9-4.4-5.4-6.9
			C50.5,43.3,49.9,41.6,49.6,40.4z M49.7,27.4c0,3.3,0,6.6,0,9.9c0.1-0.2,0.1-0.4,0.2-0.6c0-0.2,0.1-0.4,0.2-0.7
			c0.6-2.5,2.1-4.6,3.8-6.4c0.8-0.8,1.6-1.5,2.4-2.2c0-0.8,0-1.5,0-2.2C54.1,25.9,51.9,26.7,49.7,27.4z M33.7,35c-1,0-2,0-2.9,0
			c-0.9,0-1.7,0.2-2.4,0.7c-0.3,0.2-0.5,0.5-0.7,0.8c-0.2,0.5-0.3,1-0.3,1.5c0,0.6,0.1,1.2,0.4,1.7c0.4,0.7,1.2,1.1,2,0.8
			c0.4-0.6,0.8-1.1,1.2-1.6c0.8-0.9,1.6-1.8,2.5-2.7C33.8,35.8,33.9,35.5,33.7,35z M33.7,36.5c-1.2,1.4-2.2,2.6-3.4,3.9
			c1.5,0,2.5-0.7,3.4-1.5C33.7,38.1,33.7,37.4,33.7,36.5z M61.5,24c-0.8,0-3.2,0.6-4.3,1.1C58.8,25.2,60.3,25.2,61.5,24z"/>
		<path d="M128.3,26.9c2.9-3.2,7.6-2.8,9.8,0.5c0.3-0.4,0.6-0.8,1-1.1c1.6-1.6,4.4-2.1,6.6-1.1c2.2,1,3.2,2.8,3.3,5
			c0.1,4.3,0,8.6,0,12.8c0,0.1,0,0.2-0.1,0.5c-0.7,0-1.4,0-2.1,0c-0.7,0-1.3,0-2.1,0c0-0.4-0.1-0.7-0.1-1c0-3.6,0-7.3,0-10.9
			c0-0.6-0.1-1.3-0.3-1.9c-0.3-1.1-1.7-1.9-2.8-1.4c-0.7,0.3-1.4,0.6-1.9,1.1c-0.5,0.5-0.7,1.1-0.7,1.8c0,3.6,0,7.3,0,10.9
			c0,0.4,0,0.8,0,1.3c-0.8,0.1-1.5,0-2.3,0.1c-0.7,0-1.4,0-2.2,0c0-0.4-0.1-0.7-0.1-1c0-3.7,0-7.4,0-11.2c0-0.4,0-0.8,0-1.2
			c-0.1-1.4-1.3-2.2-2.7-1.9c-0.9,0.2-1.5,0.6-2.1,1.2c-0.5,0.5-0.7,1.1-0.7,1.8c0,3.6,0,7.3,0,10.9c0,0.4,0,0.8,0,1.3
			c-1.5,0.1-3,0-4.5,0c0-0.3-0.1-0.6-0.1-0.9c0-5.4,0-10.8,0-16.2c0-0.2,0-0.3,0-0.5c0-0.6,0.2-0.7,0.7-0.7c0.8,0,1.7,0,2.5,0
			c0.7,0,0.8,0.1,0.8,0.9C128.4,26.2,128.3,26.4,128.3,26.9z"/>
		<path d="M106.3,43.3c-1.2,0-2.3,0-3.5,0c-0.1-0.5-0.2-0.9-0.3-1.4c-1.2,0.9-2.3,1.6-3.7,1.8c-2.2,0.4-4.3,0.1-6.1-1.3
			c-1.1-0.9-1.7-2-1.7-3.4c0-0.5,0-1,0-1.6c-0.1-2,0.8-3.3,2.5-4.2c0.9-0.5,1.8-0.8,2.9-1c1-0.2,2-0.1,3-0.2c0.8,0,1.6,0,2.4,0
			c0-0.6,0.1-1.2,0-1.7c-0.3-1.5-1.3-2.3-2.8-2.3c-1.7-0.1-3.2,0.4-4.7,1c-0.3,0.1-0.6,0.3-0.9,0.4c-0.5-0.9-0.9-1.8-1.4-2.8
			c1-0.8,2.2-1.2,3.3-1.6c1.5-0.4,3-0.6,4.6-0.5c1.7,0.2,3.4,0.6,4.7,1.9c1,1,1.5,2.2,1.5,3.5C106.3,34.4,106.3,38.8,106.3,43.3z
			 M101.9,35c-1,0-1.9,0-2.8,0c-0.7,0-1.3,0.1-2,0.3c-0.9,0.2-1.6,1.2-1.6,2.1c0,0.4,0,0.7,0,1.1c0,1.1,0.8,1.9,1.9,2
			c1.8,0.2,3.4-0.3,4.5-1.8C101.9,37.5,101.9,36.3,101.9,35z"/>
		<path d="M111.1,25.1c2.2,0,4.4,0,6.6,0c0,0.3,0.1,0.5,0.1,0.8c0,6.7,0,13.3,0,20c0,1.5-0.5,2.8-1.7,3.8c-0.3,0.2-0.6,0.5-0.9,0.6
			c-1.3,0.5-2.6,0.5-3.9,0.2c-0.3-0.1-0.6-0.3-0.9-0.4c0.1-1,0.2-1.9,0.3-2.8c0.9,0.2,1.8,0.3,2.5-0.4c0-6,0-12.2,0-18.3
			c-0.7,0-1.3,0-2.1,0C111.1,27.4,111.1,26.3,111.1,25.1z"/>
		<path class="st0" d="M66.6,21.5c-0.8-0.1-1.4-0.2-2.1-0.2c-0.6-0.1-1.3,0.1-1.9-0.2c-0.1-0.1-0.2,0-0.4,0c-1.5-0.1-3-0.2-4.5-0.3
			c-0.7-0.1-1.5-0.2-2.3-0.3c0-0.3-0.1-0.6-0.1-1.1c0.7-0.1,1.3-0.2,2-0.3c1.2-0.2,2.5-0.1,3.7-0.4c0.1,0,0.2,0,0.4,0
			c1.2-0.1,2.4-0.2,3.7-0.3c0.5,0,0.9-0.2,1.4-0.3C66.7,19.3,66.6,20.3,66.6,21.5z"/>
		<path class="st0" d="M67.7,13.8c-0.3,1.2-0.6,2.1-0.9,3.1c-1.8,0.2-3.7,0.5-5.6,0.7c0.2-0.9,0.8-1.6,1.3-2.4
			c0.1-0.2,0.5-0.3,0.7-0.4C64.6,14.5,66.1,14.2,67.7,13.8z"/>
		<path class="st0" d="M55.4,18.7c0.4-0.6,0.7-1,1.1-1.5c0.3-0.4,0.7-0.7,1.3-0.8c1-0.2,2-0.6,3-0.8c0.2,0,0.4,0,0.7,0
			c-0.5,0.8-0.9,1.5-1.4,2.3C58.6,18.1,57,18.4,55.4,18.7z"/>
		<path class="st0" d="M11.1,23c1.8,0,3.6,0,5.6,0c-2,0.9-3.7,1.8-5.6,2.6C11.1,24.7,11.1,23.9,11.1,23z"/>
		<path class="st0" d="M49.7,27.4c2.2-0.7,4.4-1.5,6.6-2.2c0,0.7,0,1.5,0,2.2c-0.8,0.7-1.6,1.4-2.4,2.2c-1.8,1.8-3.2,3.9-3.8,6.4
			c-0.1,0.2-0.1,0.4-0.2,0.7c0,0.2,0,0.4-0.2,0.6C49.7,34,49.7,30.7,49.7,27.4z"/>
		<path class="st0" d="M33.7,35c0.2,0.5,0.1,0.9-0.2,1.2c-0.9,0.9-1.7,1.8-2.5,2.7c-0.4,0.5-0.8,1-1.2,1.6c-0.8,0.2-1.5-0.1-2-0.8
			c-0.3-0.5-0.4-1.1-0.4-1.7c0-0.5,0.1-1,0.3-1.5c0.1-0.3,0.4-0.6,0.7-0.8c0.7-0.5,1.5-0.7,2.4-0.7C31.7,35,32.7,35,33.7,35z"/>
		<path class="st0" d="M33.7,36.5c0,0.9,0,1.6,0,2.5c-0.9,0.8-1.9,1.5-3.4,1.5C31.5,39.1,32.5,37.9,33.7,36.5z"/>
		<path class="st0" d="M61.5,24c-1.2,1.2-2.7,1.3-4.3,1.1C58.3,24.6,60.6,24,61.5,24z"/>
		<path class="st0" d="M101.9,35c0,1.3,0,2.5,0,3.7c-1.2,1.5-2.7,1.9-4.5,1.8c-1.1-0.1-1.9-0.9-1.9-2c0-0.4,0-0.7,0-1.1
			c0-1,0.7-1.9,1.6-2.1c0.6-0.2,1.3-0.2,2-0.3C100,34.9,100.9,35,101.9,35z"/>
	</g>
</g>
</svg>
