<?xml version="1.0" encoding="utf-8"?>
<!-- Generator: Adobe Illustrator 24.2.3, SVG Export Plug-In . SVG Version: 6.00 Build 0)  -->
<svg version="1.1" id="Vrstva_1" xmlns="http://www.w3.org/2000/svg" xmlns:xlink="http://www.w3.org/1999/xlink" x="0px" y="0px"
	 viewBox="0 0 103 42.8" style="enable-background:new 0 0 103 42.8;" xml:space="preserve">
<style type="text/css">
	.st0{fill:none;stroke:#FFFFFF;stroke-miterlimit:10;}
	.st1{fill:none;stroke:#000000;stroke-miterlimit:10;}
</style>
<path class="st0" d="M37.1,18.9L49,17.7v3.9l-11.8-1L37.1,18.9z M51.9,17.4l-0.1,0.3l-1.7-4.1l-1,3.4l-6.4,0.8l1.8-3.2l5.7-1.4
	L51.9,17.4z M44,14.6l0.4-0.1l-1.8,3v0.4L42.1,18l-5.3,0.9l2.1-2.7l4.8-1.3L44,14.6z"/>
<path class="st0" d="M32.7,42.5c-3.4-9.6,6.2-16.1,13.8-19.8l-3,0.6l3-0.6C40.1,24,33.8,26,27.8,28.6C22.5,31,17.4,34,13.6,38.4"/>
<path class="st0" d="M54.4,21.7h-3.3c1.2,0.2,2.4,0.2,3.6,0.2c-1.2-0.3-2.4-0.3-3.6-0.2c7,0.3,14.1,2.1,21,0c0,0,11.7-1.9,16.6-1.6"
	/>
<path class="st1" d="M-16.6,17.7"/>
<path class="st0" d="M102.8,3.7c0,0-15.7-2.6-20.1-2.7S66.4,3.2,66.4,3.2h-2.9c-6-1.4-12.3-0.7-17.8,2.1c-1,0.4-2,0.6-3.1,0.7
	c-3.8-0.7-7.5-2.1-11.3-1.7c-4.7,0.8-9.4,1.9-14,3.4C12.9,6.7,8.1,5,4,7.4"/>
<path class="st0" d="M37.1,20.5l-9.3-1.1c-9.3-0.9-18.6,0.1-27.5,3"/>
<path class="st0" d="M48.9,21.5"/>
<line class="st0" x1="51.8" y1="17.7" x2="51.8" y2="21.8"/>
</svg>
