<?xml version="1.0" encoding="utf-8"?>
<!-- Generator: Adobe Illustrator 24.2.3, SVG Export Plug-In . SVG Version: 6.00 Build 0)  -->
<svg version="1.1" id="Vrstva_1" xmlns="http://www.w3.org/2000/svg" xmlns:xlink="http://www.w3.org/1999/xlink" x="0px" y="0px"
	 viewBox="0 0 424.5 132.2" style="enable-background:new 0 0 424.5 132.2;" xml:space="preserve">
<style type="text/css">
	.st0{fill:none;stroke:#1D1D1B;stroke-miterlimit:10;}
	.st1{clip-path:url(#SVGID_2_);fill:none;stroke:#FFFFFF;stroke-width:1.0375;stroke-miterlimit:10;}
	.st2{clip-path:url(#SVGID_2_);}
	.st3{fill:none;}
	.st4{fill:#FFFFFF;}
	.st5{font-family:'AvenirNext-Bold';}
	.st6{font-size:40px;}
</style>
<path class="st0" d="M757.6,191.5"/>
<path class="st0" d="M762.7,144.8"/>
<path class="st0" d="M615.2,180.9"/>
<g>
	<defs>
		<rect id="SVGID_1_" width="424.5" height="132.2"/>
	</defs>
	<clipPath id="SVGID_2_">
		<use xlink:href="#SVGID_1_"  style="overflow:visible;"/>
	</clipPath>
	<path class="st1" d="M130.7,84.7"/>
	<path class="st1" d="M121,51.8"/>
	<path class="st1" d="M121,51.8"/>
	<path class="st1" d="M121.1,51.3"/>
	<path class="st1" d="M112.4,85.5"/>
	<path class="st1" d="M84.9,69.9"/>
	<path class="st1" d="M82.2,70.4"/>
	<path class="st1" d="M61.9,101.5"/>
	<path class="st1" d="M191.6,37.6"/>
	<path class="st1" d="M77.3,69.1"/>
	<path class="st1" d="M117.2,50.4c-0.5,0.9-2.4,6.8-3.2,8.4c-3.1,6.4-4.1,5-4.8,7.6c-1.4,5.4-0.9,5.3-0.4,11
		c0.2,2.1-0.4,3.2,0.1,6.1c0.3,1.7,0.6,2,0.3,2.6c-1.6,2.5-11,1.7-16.3,1.2c-0.1,0-0.6-0.1-1.1-0.1c-1.5-0.1-3.1,0.1-17.4-0.1
		C67.5,87.1,64,87.1,61.7,87c-12.4-0.3-18.6-0.4-23.6-1.7c-7.7-1.9-12.8-5.2-15.3-6.8c-5.1-3.3-16.4-10.7-14.6-19
		c1.1-5,6.4-8.1,7.2-8.5c6-3.4,10.6-1.1,26.1-4.1c3.8-0.7,6.8-1.5,8.6-2c6.3-1.7,10.9-3.5,13.5-4.5c1.3-0.5,2.3-1,2.5-1.1
		c3.9-1.7,27.3-9.6,60.8-4.4c11.6,1.8,23.5,5,35.6,3.6c0.8-0.1,3.5-0.4,7.2-0.7c8.1-0.7,14.1-1.1,20.2-0.3c7.1,0.9,12.2,1.6,15.3,5
		c7.3,8,0.5,28.6-11.2,41.5c-6.8,7.6-10.6,7.2-33.7,18.7c-27.3,13.5-36.2,20.9-56.4,24.7c-13.1,2.5-19.8,1.1-23.4-2.7
		c-3.4-3.6-1.9-9.5-1.9-9.8c1-3.6,3.7-6.2,6-8.3c1.8-1.7,3.5-2.8,4.4-3.4c17-12.6,24.4-15.8,33.1-17.1c7.6-1.1,26.2-0.8,36.3-2.1
		c16.1-2.2,19.5-3.2,28.7-9.7c5.8-4,8.6-8.3,11-12c2.6-4,8.3-13.2,6.3-24.7c-0.8-4.6-2.3-13.8-10.8-17.6c-4.8-2.2-10.3-1.9-17-1.6
		c-7.3,0.3-8.9,0.6-15.1,2.3c-7.5,2-14.9,0.5-29.2-2.3c0,0-12-2.4-19.2-5.8c-0.1-0.1-1-0.5-2.2-1c-1.3-0.6-3.3-1.5-6.1-2.5
		c-3.8-1.4-6.3-2.2-9-2.9c-0.8-0.2-1.9-0.5-3.4-0.8c0,0-1.9-0.3-3.9-0.2c-7.3,0.2-14.2,3.3-14.2,3.4c0,0,0,0,0,0
		c-3.8,1.9-7.7,3.9-11.7,6.1c-8.8,4.8-9.5,6.1-18.8,11.5c-9.7,5.6-11.6,5.9-16.5,9.9c-2.9,2.3-6.3,5.1-8.8,8.8
		c-5.8,8.5-6.3,14.2-0.1,40.9c5,21.8,5,24.5,7.6,25.9c8.8,4.7,23.3-1.9,28.1-4.9c3.5-2.2,5.7-4.3,12.3-7.4c4.5-2.1,8.6-3.8,10.9-4.5
		c4.8-1.4,8.2-3,14.1-4.3c15.6-3.3,20.2-4,25.6-4.4c12.3-0.8,11.1-0.7,12.4-0.5c0.8,0.1,2,1,2.9,0c0.4-0.5,0.5-1.2,0.5-3.3
		c0-2.4-0.2-4-0.2-4c-0.3-3.5-0.6-6.1-0.5-9.2c0.1-1.9,0.1-1.7,0.1-2.3c-0.3-2.5-1.8-3.9-4.2-6.7c-3.8-4.3-4.5-6-4.9-7.1
		c0-0.1-0.1-0.2-0.1-0.3c-0.4-0.7-2-3.8-3.6-4.4c-0.1,0-0.8-0.1-1.1-0.1c-0.8,0.1-1.3,1.2-1.6,1.5c-2.9,4.3-3.6,12.3-8.2,16.8
		c-2.7,2.6-5.6,2.3-6.2,2.3c-0.9,0-3.8,0.3-8.8,1.1c-5.9,0.9-6.8,0.5-7.7-0.2c-1.2-0.9,0-1.7,0.3-2.8c0.6-2.1,0.9-3.2,5.5-8.9
		c0.7-0.8,1-1.8,2.2-3.2c0.5-0.6,1.7-2.2,0.4-1.8c-1.6,0.5-2.7,1.4-3.1,1.8c-2.5,3.2-3.4,4.2-3.7,4.5c-0.1,0.1-0.2,0.3-0.3,0.4
		c-0.8,1.2-1.6,2.5-2.5,3.8c-0.3,0.5-1.5,2.7-3,5.1c-0.2,0.4-0.4,0.6-0.7,0.9c-1,1-2.4,1.6-4.4,2c-3.1,0.7-7.5,0-9.1-0.3
		c-0.3-0.1-0.5-0.1-0.6-0.1"/>
	<path class="st1" d="M117,50.7c0.4-0.6,1.7-2.9,1.3-3.3c-0.6-0.6-6.7,0-7.5,0.2c-6.7,2.2-13.9,3.1-20.8,4.9
		c-4.6,1.2-6.9,1.7-7.4,1.8c-5.8,1.2-6.9,1.1-8.8,2.8c-2.3,2-3.6,4.7-5,7.8c-1,2.2-1.8,3.6-2,5.7c-0.3,2.2,0.3,2.8,0.5,4.4
		c0.1,0.6,0.1,1.2,0.1,2.2c-0.1,4.7-0.9,6.2,0.1,7.7c0.2,0.3,0.7,0.9,2,1.5c4.5,2,11.9,0.3,15.2-0.2c12.2-2,19,3.3,21.7-0.5
		c0.3-0.4,0.1-0.6,0.6-4.8c0.7-5.7,0.8-9.9-0.5-13.7c-0.1-0.4-0.8-0.9-3.4-0.6c-1.3,0.1-2.1,0.2-3.7,0.5c-0.8,0.1-2.8,0.5-6.6,1.2
		c-0.3,0.1-0.3,0.1-0.3,0.1c-3.9,0.7-7.3,0.3-10.7,0.5c-3.3,0.2-7.6,1.1-10,1.9c0,0-1.5,0.5-3.6,0.7c-1.3,0.1-2.2,0.2-2.7-0.2
		c-0.7-0.6,0-2.1,1.5-4.5c3.6-5.7,5.4-8.6,9.7-10.5c1.4-0.7,2.6-1,3.3-1.2"/>
	<path class="st1" d="M129.3,84.7"/>
	<path class="st1" d="M95.1,86.9"/>
	<path class="st1" d="M143.9,79"/>
	<path class="st1" d="M123.2,64.5"/>
	<path class="st1" d="M44.5,32.8"/>
	<path class="st1" d="M67.2,88.5"/>
	<g class="st2">
		<rect x="243.2" class="st3" width="872.6" height="878.8"/>
		<text transform="matrix(1 0 0 1 243.1866 30.24)"><tspan x="0" y="0" class="st4 st5 st6">Fajn </tspan><tspan x="0" y="41" class="st4 st5 st6">TAJM</tspan><tspan x="0" y="82" class="st4 st5 st6">Rychleby</tspan></text>
	</g>
	<use xlink:href="#SVGID_1_"  style="overflow:visible;fill:none;stroke:#FFFFFF;stroke-miterlimit:10;"/>
</g>
</svg>
