<?xml version="1.0" encoding="utf-8"?>
<!-- Generator: Adobe Illustrator 24.2.3, SVG Export Plug-In . SVG Version: 6.00 Build 0)  -->
<svg version="1.1" id="Vrstva_1" xmlns="http://www.w3.org/2000/svg" xmlns:xlink="http://www.w3.org/1999/xlink" x="0px" y="0px"
	 viewBox="0 0 262.6 77.5" style="enable-background:new 0 0 262.6 77.5;" xml:space="preserve">
<g>
	<g>
		<path d="M43.5,29.3v12.6c0,3.2-0.9,5.9-2.8,8c-1.9,2.2-4.6,3.2-8.2,3.2c-0.9,0-1.9-0.1-2.8-0.3c-0.9-0.2-1.7-0.5-2.5-1
			c-0.7-0.5-1.3-1.1-1.8-1.9c-0.5-0.7-0.7-1.7-0.7-2.8c0-8.9,12.4-10.9,13.8-14.1c1-2.3-6.6-4-6.6-4c0.5-1.6,7.4-7.4,10.1-4.3
			C43.3,26.3,43.5,29.3,43.5,29.3z M51,55c0-0.1-0.1-0.2-0.1-0.3c-0.1-0.8-0.2-1.6-0.2-2.5c0-0.6,0-1.1,0-1.6V33.8
			c-0.3-9.1-3.6-11.4-8.9-12.1c-4.2-0.6-12.3,2.8-15.7,6.3c0,0,4.4,0.9,3,3.8c-1.9,4.1-7.6,6.2-9.9,8.5c-2.3,2.3-2.4,4-2.4,6.9
			c0,2.2,0.5,4.1,1.3,5.6c0.9,1.5,2,2.8,3.4,3.6c1.3,0.9,2.8,1.6,4.5,2c1.6,0.4,3.2,0.6,4.7,0.6c0.3,0,0.7,0,1,0
			c2.5-0.1,4.7-0.7,6.6-1.7c2.2-1.1,3.9-2.7,5.3-4.7h0.2c0,0.5,0,1,0,1.4c0.1,1.3,0.3,2.7,0.6,4l9.1-0.1C53.4,57.2,51.4,57,51,55z"
			/>
		<path d="M55.7,62.8V19.9c2.1,0,4,0.9,5.4,2.2c1.4,1.4,2.2,3.3,2.2,5.4V63c0,0.4,0,0.8,0,1.2c0,1.3-0.2,2.6-0.4,3.9
			c-1.4,5.4-6.3,9.3-12.1,9.4h-0.1c-0.2,0-0.4,0-0.6,0c0,0-0.1,0-0.1,0c-1.1-0.1-2.1-0.3-3-0.6c5.1-1.6,8.8-6.4,8.8-12.1"/>
		<path d="M84.4,19.4c1.3-0.4,2.6-0.6,4-0.6c2.5,0,4.6,0.4,6.4,1.2c1.8,0.8,3.3,1.9,4.4,3.4c1.2,1.4,2.1,3,2.6,4.9
			c0.6,1.9,0.9,3.9,0.9,6.1v23.7h-7.6V34.2c0-1.6-0.1-3.5-0.3-4.9c-1.5-8.3-11.3-7.8-15-5.7c-2.8,1.6-3.7,2.7-3.7,2.7v31.8h-7.6v-30
			c0-1,0-2.3-0.1-3.9l7.7-5.4l0,4.7c0,0,1.5-1,2.9-1.7C80.3,21,82.5,20,84.4,19.4z"/>
		<path d="M142.6,58.1V4.2h-0.3l-7.7,0c0,0-3.5,0.2-5.6,0.9c-1.1,0.3-2.3,1.1-3.3,1.3c-0.9,0.2-1.7,0.2-1.7,0.2V1h44.6v5.5
			c0,0-0.7,0.1-1.7-0.2c-1.5-0.4-1.7-0.7-3.3-1.2c-2.7-0.8-6-0.8-6-0.8l-7.2,0H150c0,7.9,0,53.9,0,53.9H142.6z"/>
	</g>
	<circle cx="59.4" cy="9.8" r="4.5"/>
	<g>
		<path d="M31.4,6c-2.6,0-2.8-0.7-5.6-1.5c-2.4-0.7-3.4-1-6.8-1.1H7.4h0V26c0,1.2,1.3,2.5,3.9,2.5c4.9,0,8.5-0.9,10.4-2.2
			c0,0,0,6.1,0,6.1c-1.6-1.2-5.3-2.4-10.3-2.4c-3.1,0-4,1.5-4,2.5c0,5.8,0,25.6,0,25.6H0V0l31.4,0.2V6z"/>
	</g>
	<path d="M182.8,29.3v12.6c0,3.2-0.9,5.9-2.8,8c-1.9,2.2-4.6,3.2-8.2,3.2c-0.9,0-1.9-0.1-2.8-0.3c-0.9-0.2-1.7-0.5-2.5-1
		c-0.7-0.5-1.3-1.1-1.8-1.9c-0.5-0.7-0.7-1.7-0.7-2.8c0-8.9,12.4-10.9,13.8-14.1c1-2.3-6.6-4-6.6-4c0.5-1.6,7.4-7.4,10.1-4.3
		C182.6,26.3,182.8,29.3,182.8,29.3z M190.2,55c0-0.1-0.1-0.2-0.1-0.3c-0.1-0.8-0.2-1.6-0.2-2.5c0-0.6,0-1.1,0-1.6V33.8
		c-0.3-9.1-3.6-11.4-8.9-12.1c-4.2-0.6-12.3,2.8-15.7,6.3c0,0,4.4,0.9,3,3.8c-1.9,4.1-7.6,6.2-9.9,8.5c-2.3,2.3-2.4,4-2.4,6.9
		c0,2.2,0.5,4.1,1.3,5.6c0.9,1.5,2,2.8,3.4,3.6c1.3,0.9,2.8,1.6,4.5,2c1.6,0.4,3.2,0.6,4.7,0.6c0.3,0,0.7,0,1,0
		c2.5-0.1,4.7-0.7,6.6-1.7c2.2-1.1,3.9-2.7,5.3-4.7h0.2c0,0.5,0,1,0,1.4c0.1,1.3,0.3,2.7,0.6,4l9.1-0.1
		C192.6,57.2,190.7,57,190.2,55z"/>
	<path d="M195,62.8V19.9c2.1,0,4,0.9,5.4,2.2c1.4,1.4,2.2,3.3,2.2,5.4V63c0,0.4,0,0.8,0,1.2c0,1.3-0.2,2.6-0.4,3.9
		c-1.4,5.4-6.3,9.3-12.1,9.4h-0.1c-0.2,0-0.4,0-0.6,0c0,0-0.1,0-0.1,0c-1.1-0.1-2.1-0.3-3-0.6c5.1-1.6,8.8-6.4,8.8-12.1"/>
	<path d="M222.6,19.4c1.5-0.5,2.1-0.6,3.7-0.6c2.5,0,3.7,0.4,5.4,1.2c1.8,0.8,4.1,2.2,5.2,3.6c1.2,1.4,1.6,3.1,1.6,3.1s0-1.3,0,0.9
		v30.5h-6.9V34.2c0-1.6,0-3.6-0.3-5c-1.5-8.3-9-8.4-12.8-6.1c-2.8,1.7-3.2,2.5-3.2,2.5v32.6h-7.6v-30c0-1,0-2.3-0.1-3.9l7.7-5.5
		l0,4.6c0,0,1.7-1.2,2.4-1.6C219.1,21,220.8,20,222.6,19.4z"/>
	<circle cx="198.7" cy="9.8" r="4.5"/>
	<path d="M239.9,22.8c1.9-1.8,4.1-2.8,6-3.4c1.5-0.5,2.1-0.6,3.7-0.6c2.5,0,3.7,0.4,5.4,1.2c1.8,0.8,3.3,1.9,4.4,3.4
		c1.2,1.4,2,3,2.6,4.9c0.6,2,0.6,2.3,0.6,6v23.8h-7.6V34.2c0-1.6,0-3.6-0.3-5c-1.5-8.3-9.4-8.9-12.8-6.1c-2.6,2.1-3.2,3.1-4.4,6.8
		L237,27C237,27,238.3,24.4,239.9,22.8z"/>
</g>
</svg>
