<?xml version="1.0" encoding="utf-8"?>
<!-- Generator: Adobe Illustrator 24.2.3, SVG Export Plug-In . SVG Version: 6.00 Build 0)  -->
<svg version="1.1" id="Vrstva_1" xmlns="http://www.w3.org/2000/svg" xmlns:xlink="http://www.w3.org/1999/xlink" x="0px" y="0px"
	 viewBox="0 0 1080 198.5" style="enable-background:new 0 0 1080 198.5;" xml:space="preserve">
<style type="text/css">
	.st0{fill:none;stroke:#000000;stroke-width:7.9433;}
</style>
<path d="M0,55.2c8.5,0.8,17,0.2,25.4,0.3c3.3,0,6.7,0.2,9.9,1.1c11.7,3.1,17.4,12.7,16.2,24.6c-1,10.1-6.9,16.2-16.6,19.3
	c6.5,12.5,12.8,24.7,19.4,37.4c-3.4,0-6.2,0-9.4,0c-6.3-12.1-12.7-24.2-19.1-36.3c-5.5,0-10.8,0-16.5,0c0,12.1,0,24,0,36
	c-3.3,1-6.4,0.1-9.3,0.6C0,110.5,0,82.8,0,55.2z M9.4,63.4c0,10.2,0,19.9,0,29.9c6.8,0,13.4,0.2,20-0.1c6.8-0.3,11-4.2,12.4-10.8
	c1.8-8.6-2.3-16.4-9.9-18.1C24.5,62.6,17.1,63.4,9.4,63.4z"/>
<path d="M1080,91.2c-1.8,1.8-2.1,4.3-2.9,6.6c-5.5,16-10.8,32.1-16.1,48.1c-2.1,6.2-4.7,12.1-9.7,16.6c-3.9,3.6-8.5,5.6-14,5.8
	c-0.4-2.3-0.7-4.4-1.1-6.8c12.4-1.9,14.8-12,17.8-21.5c0.6-1.9-0.4-3.6-1-5.3c-5.5-16.5-11-33.1-16.4-49.6c-0.3-0.8-0.4-1.6-0.7-2.5
	c3.3-0.6,6.4-0.3,9.7-0.2c4.3,14.4,8.5,28.7,12.7,42.9c0.3,0.1,0.5,0.1,0.8,0.2c4.6-14.3,9.2-28.6,13.9-43.2c2.4,0,4.7,0,7,0
	C1080,85.2,1080,88.2,1080,91.2z"/>
<path d="M319.3,51.7c3.3,0,6.1,0,9.5,0c0.2,5.7,0.1,11.3,0.1,16.8c0,5.4,0,10.9,0,16.9c4.8-3.3,9.5-4.5,14.7-4.3
	c7.5,0.3,13,3.7,16.4,10.3c2.4,4.5,3.2,9.4,3.5,14.4c0.4,6.2,0,12.3-1.9,18.2c-3.8,11.6-13.7,15.6-23.2,14.8
	c-10.3-0.9-16.5-7-18.3-17.2c-0.5-3-0.7-5.9-0.7-8.9c0-18.5,0-37,0-55.4C319.3,55.5,319.3,53.9,319.3,51.7z M328.9,94.7
	c0,7.9,0,15.7,0,23.5c0,1.5,0.4,3,0.7,4.4c1.6,6,4.8,8.4,10.5,8.7c5.9,0.3,10-2.5,11.6-8.1c2.2-7.8,2.1-15.8,0.5-23.7
	c-0.3-1.6-0.8-3.3-1.6-4.7c-2-3.6-4.8-5.8-9.2-5.8C336.7,88.9,332.5,90.3,328.9,94.7z"/>
<path d="M178.9,96.4c0,13.7,0,27.4,0,41.2c-3.1,0.9-6,0.2-9.2,0.4c0-28.9,0-57.3,0-85.7c1.3-1.4,2.9-0.7,4.3-0.8
	c1.5-0.1,2.9,0,4.9,0c0,11.8,0,23.2,0,34.5c1.8,0.2,2.5-0.9,3.5-1.5c6-3.7,12.4-4.3,19.2-2.5c4.7,1.2,7.8,4.3,9.5,8.8
	c1,2.6,1.7,5.4,1.8,8.2c0.1,12.8,0,25.6,0,38.6c-2.9,0.7-5.7,0.3-8.2,0.3c-1.5-1.1-1.1-2.5-1.1-3.8c0-10.3,0-20.6,0-31
	c0-2.2-0.1-4.3-0.4-6.5c-0.7-4.8-3.5-7.2-8.4-7.5C188.4,88.8,183.5,91.7,178.9,96.4z"/>
<path d="M437.6,115.2c0,7.5,0,14.9,0,22.6c-3.1,0-5.9,0-8.7,0c-1-3.7-1.4-71.9-0.5-85.9c2.8-0.9,5.8-0.3,9.2-0.4c0,17,0,33.7,0,50.5
	c0.3,0.2,0.6,0.3,0.9,0.5c3.4-3.3,6.7-6.6,10.1-10c3.4-3.4,6.7-6.9,9.9-10.2c3.9,0,7.4,0,11.5,0c-2.9,3.8-6.3,6.6-9.3,9.7
	c-3,3.1-6.1,6.1-9.2,9.3c7.1,12.1,14,24,21.2,36.3c-3.4,0.8-6.6,0.3-10,0.4c-5.8-9.9-11.5-19.8-17.3-29.8"/>
<path d="M523.9,112.1c-11.3,0-22.2,0-33.5,0c0.2,7.4,1.5,13.9,8.3,17.4c7.2,3.6,13.5,1.1,18.9-4.2c1.7,1.7,3.3,3.4,5.2,5.2
	c-5.9,6.2-12.9,9.5-21.6,8.3c-9.2-1.3-15.8-6.2-18.8-15c-3.3-9.5-3.2-19.3,0.5-28.8c4-10.3,13.5-15.6,24.3-13.7
	c7.1,1.3,11.8,5.7,14.5,12.3C524,99.3,524.1,105.3,523.9,112.1z M513.8,105.1c0.2-3.7-0.2-6.7-1.2-9.4c-2.7-7.4-12.5-9.4-17.7-3.5
	c-3.2,3.6-4.3,7.9-4.2,12.8C498.8,105.1,506.3,105.1,513.8,105.1z"/>
<path d="M62.8,168c-0.9-2.2-0.6-4.2-0.9-6c0.4-0.4,0.5-0.8,0.8-0.8c7.1-1.3,11.3-5.9,13.7-12.4c0.4-1.1,0.9-2.2,1.3-3.2
	c1.9-4.3,1.7-8.5,0.1-13c-5.2-15.2-10.1-30.5-15.1-45.7c-0.5-1.4-1.1-2.8-1-4.4c2.9-0.7,5.9-0.1,9.2-0.4
	c4.4,14.5,8.6,28.9,12.9,43.2c0.3,0,0.5-0.1,0.8-0.1c4.5-14.2,9.1-28.3,13.7-42.8c3.1-0.4,6.2-0.4,9.5,0.1
	c-6.2,18.4-12.4,36.6-18.5,54.8c-1.7,5-3.1,10.1-5.3,15c-3.4,7.4-8.4,13.1-16.6,15.4C66.1,168,64.6,168.3,62.8,168z"/>
<path d="M303.5,112.1c-11.4,0-22.2,0-33,0c-1,7.4,2,14.3,7.4,17.2c6.2,3.4,12.2,2.2,19.5-4c2,1.2,3.3,3.2,5.1,5.2
	c-6,6.3-12.9,9.5-21.4,8.3c-12.5-1.7-19.3-10.3-20.8-22c-0.8-6.1-0.7-12.3,1-18.3c3.8-13.5,14.9-20,27.8-16.6
	c5.9,1.6,9.6,5.7,11.9,11.1C303.5,99,303.8,105.2,303.5,112.1z M294.1,105.1c-0.5-3.5-0.8-6.4-1.9-9.3c-1.3-3.7-3.5-6.3-7.6-6.8
	c-4.5-0.5-8.3,0.6-11,4.3c-2.5,3.4-3.3,7.4-3.6,11.8C278.2,105.1,285.9,105.1,294.1,105.1z"/>
<path d="M375.8,132.6c1.5-2.4,2.7-4.3,4.1-6.5c4.7,2.6,9.4,5.2,14.9,4.9c2.6-0.2,5.3-0.6,7.4-2.5c2.4-4.9,1.9-8.3-2.2-11.3
	c-2.5-1.9-5.4-3.2-8.1-4.8c-2.7-1.6-5.6-2.9-8.2-4.7c-3.4-2.4-6.2-5.5-6.7-10c-1-9.7,5.5-14.7,13.4-16.1c7.5-1.3,14.8,0,21.7,4.1
	c-0.4,2.6-2.1,4.5-3,6.8c-2.9-1-5.3-2.1-7.8-2.8c-3.4-0.9-6.9-1.2-10.2,0.3c-4.8,2.2-5.7,6.7-1.9,10.4c2.2,2.1,4.9,3.4,7.5,4.9
	c3.5,2,7,3.8,10.2,6.2c5.4,3.9,7.7,9,6.4,15.6c-1.3,6.6-6.2,9.6-12.1,11.1C392,140.4,383.7,138.3,375.8,132.6z"/>
<path d="M248.1,138.8c-8.6,0.4-13.7-3.6-14.8-11.6c-0.2-1.1-0.1-2.3-0.1-3.5c0-23,0-46,0-69c0-0.8,0-1.7,0-2.6c3-1,5.9-0.5,8.7-0.4
	c1.3,1.7,0.8,3.4,0.8,5c0,21.5,0,43,0,64.5c0,2.5-0.2,5,0.9,7.3c0.9,1.7,2.9,1.5,4.4,2.6C248.3,133.6,248.1,136.2,248.1,138.8z"/>
<path d="M149.9,126c1.6,1.8,3.1,3.5,4.7,5.2c-8.2,11.4-27.1,10.2-34.5-2.5c-1.9-3.2-3-6.7-3.5-10.3c-1.1-8.3-1.1-16.6,2.2-24.5
	c5.9-14.3,23.5-17.6,34.4-6.3c-1.2,2-3.1,3.4-4.6,5c-1.8,0.1-2.5-1.5-3.7-2.2c-6.7-3.8-14.1-1.4-16.7,5.9c-3.1,8.7-3,17.7-0.4,26.4
	c2.6,8.5,11.3,11.3,18.8,6.2C147.6,128.2,148.6,127.1,149.9,126z"/>
<path d="M501.5,56.4c2.9-0.2,5.4-0.5,8.2,0c-2,5.6-4,10.9-6.5,16c-2.4,0.6-4.5,0.3-7,0.3C497.4,67,499.7,61.9,501.5,56.4z"/>
<path d="M1031.2,137.9c-3.5,0-6.5,0-10,0c-5.6-9.7-11.5-19.7-17.5-30c-2.6,2.4-5,4.6-7.7,7.1c0,7.5,0,15.1,0,22.9
	c-3.1,0-5.9,0-8.9,0c0-28.7,0-57.3,0-86.1c2.9-0.3,5.6-0.3,8.8,0c0,17.1,0,34,0,52c7.6-7.6,14.6-14.5,21.5-21.4c3.5,0,6.8,0,10.9,0
	c-3.1,3.6-6.2,6.4-9.1,9.4c-3.1,3.1-6.2,6-9.6,9.3C1016.9,113.3,1024,125.4,1031.2,137.9z"/>
<path d="M919.5,112.1c-11.2,0-22.1,0-33.5,0c0.6,7.2,1.5,13.7,8.3,17.3c7.4,3.9,13.7,1.1,19.4-4.2c1.7,1.8,3.6,3.1,4.9,5.5
	c-6.7,6.8-14.3,9.8-23.9,7.7c-9.5-2.2-14.9-8.3-17.3-17.3c-2.2-8.2-1.9-16.5,0.8-24.6c4.7-13.9,17.2-17.7,27.7-14.3
	c7.6,2.4,11.2,8.6,12.9,15.8C919.8,102.3,920.2,106.8,919.5,112.1z M909.8,105.1c0.5-3.4-0.3-6.3-1.2-9.1c-1.4-4-3.9-6.8-8.5-7.1
	c-4.7-0.3-8.4,1.2-10.9,5.4c-1.9,3.3-2.6,6.9-2.9,10.8C894.2,105.1,901.8,105.1,909.8,105.1z"/>
<path d="M826.9,85.8c-1.2,2.4-2.1,4.6-3.6,6.5c-2.5-0.9-5-1.7-7.5-2.6c-2.4-0.8-4.9-0.9-7.4-0.6c-3.8,0.5-6.2,2.2-6.8,4.9
	c-0.7,3.4,0.7,5.9,3.5,7.6c3.1,1.9,6.3,3.7,9.5,5.5c3.2,1.8,6.4,3.6,9,6.2c7.6,7.7,5.3,19.6-4.9,23.6c-7.1,2.8-14.3,2.6-21.4-0.3
	c-2.3-0.9-4.5-2.1-6.4-3.6c-0.5-1.7,0.7-2.6,1.4-3.7c0.7-1.1,1.5-2.2,2.3-3.3c3.6,1.8,6.8,3.8,10.6,4.5c2.6,0.4,4.9,0.3,7.4-0.2
	c5.3-1.2,7.2-5.5,4.6-10.2c-1.1-2-2.8-3.3-4.7-4.3c-3.3-1.9-6.7-3.7-10.1-5.5c-2.5-1.4-4.9-2.8-6.9-4.9c-6.5-6.7-5.4-16.3,2.5-21.4
	c5.4-3.5,11.4-3.3,17.4-2.6C819.4,82,823.1,83.4,826.9,85.8z"/>
<path d="M970.7,82.3c0.9,3.5-0.2,6.1-1.9,8.7c-7.7,11.8-15.3,23.7-22.9,35.6c-0.7,1.1-1.7,2-1.7,3.9c8.8,0,17.5,0,26.4,0
	c0.7,2.7,0.3,4.9,0.3,7.3c-12.8,0-25.3,0-37.8,0c-1-3.4-0.7-6.3,1.3-9.4c7.3-11.1,14.4-22.3,21.6-33.5c1.1-1.7,2.1-3.4,3.4-5.5
	c-8.4,0-16.3,0-24.3,0c-0.9-2.4-0.4-4.5-0.5-6.5C938.4,81.8,960.9,81.5,970.7,82.3z"/>
<path d="M853.9,89.4c0,11.2-0.1,22.1,0,33.1c0,3.6,2.1,6.2,5.5,7.6c1.4,0.5,2.8,0.8,4.5,1.3c0.5,2.3,0.2,4.6,0.2,6.8
	c-8.9,1.7-17.9-4.4-19.2-13c-0.3-2.3-0.5-4.6-0.5-7c0-9.5,0-19,0-28.4c-2.3-1.3-4.7-0.1-7.2-1c-0.5-1.9-0.2-4-0.2-6.1
	c2.3-1.5,4.7,0.1,7.3-1c0-3.9,0-7.9,0-12.2c3.3,0,6.2,0,9.4,0c0,4.1,0,8,0,12.1c3.4,1,6.8,0,10.2,0.8c0,2.2,0,4.3,0,6.5
	C860.9,89.6,857.7,88.8,853.9,89.4z"/>
<path d="M674.6,82.8c0.9-2.2,1.6-3.7,2.2-5.3c0.7-2,1.3-4,2-6.1c-9.8-1-10.4-1.3-10.8-5.8c3.5-0.9,16.2-1.1,21.9-0.2
	c0,1.7,0,3.4,0,5.1c-2,1.1-4.1,0-6.3,1c-1.6,4.2-3.2,8.7-5,13.3c1.1,1.5,2.3,2.9,4.5,3.7c8-6.9,17.5-9.5,28.1-6.7
	c7.6,2,13.4,6.7,17.3,13.3c8.8,14.8,2.8,32.5-10.7,40.1c-5.6,3.2-11.5,4.3-17.8,3.6c-6.3-0.6-11.8-3.3-16.5-7.5
	c-4.7-4.2-7.4-9.6-9.2-16.6c-2.5,4.1-4.4,7.2-8.3,7.8c-1.9,0.3-3.6-0.4-5.2-1.4c-3.5-2.3-4.1-5.8-1.7-11.4
	c-9.2-13.3-18.5-26.7-28.3-40.9c-2.3,5.3-4.2,9.8-6.2,14.6c8.4,5.6,14.6,12.7,15.4,23.2c0.6,7.6-0.9,14.6-5.6,20.7
	c-9,11.7-25.1,15-38,7.7c-11.5-6.5-18.2-21.1-13-35.2c4.5-12.3,17.4-22.7,37-17.9c2.5-6,5.1-12,7.6-18.1c1.2-2.8,2.3-5.5,3.4-8.3
	c1.4-3.7,4.1-5.5,8-5.5c2,0,3.9,0,5.7,0c1,1.4,0.9,2.5,0.3,3.7c-2.7,1.1-6-0.6-9.1,2c-1.3,2-2.3,4.8-3.3,7.9
	C646.7,70.1,660.4,76.4,674.6,82.8z M617.6,89c-8-5.1-22.4,1.3-26.9,10.2c-5.8,11.6-1.8,25.2,9.7,31.2c11.3,5.9,25.2,1.5,31-10.1
	c5.6-10.9,1.3-24.4-9.7-30c-2.1,5-4.2,10.1-6.2,14.8c2.3,7.4,1.3,9.4-5,10.9c-4-1.6-5.5-3.3-5.5-6.1c0.1-4.3,3.3-5.3,6.6-6.3
	C613.6,98.7,615.6,93.8,617.6,89z M681.2,115.2c2.4,10.5,12,18.1,22.9,17.8c10.2-0.3,19.8-8.4,21.7-18.1
	c2.1-10.3-3.1-20.9-12.3-25.5c-8.7-4.3-19.6-2.5-25.5,4.3c4,3.5,7.9,7,11.8,10.5c1.8,0,3.5,0,5,0c1.9,0.8,3.2,1.9,4,3.7
	c0.6,3,0.2,5.5-2.8,7.2c-3.5,2-5.9,0-8.5-2.3C692.2,113.7,686.8,114.4,681.2,115.2z M666,106.7c2.4-6.4,4.8-12.9,7.3-19.8
	c-11.9-5.4-23.3-11-35.5-15.2c8.2,11.9,16.4,23.7,24.4,35.4C663.6,107.7,664.5,107.6,666,106.7z M680.4,111.1
	c5.9-1.1,11.4-1.1,17.2-2.8c-4.3-4.4-8.3-8-12.8-11.5C681.6,101,680.4,105.4,680.4,111.1z M673.7,112.3c0.8-7.1,1.9-13.8,5.8-19.3
	c-0.7-1.5-1.1-2.7-3-2.6c-2.3,6.2-4.5,12.4-6.8,18.4C670.9,110.2,671.3,111.7,673.7,112.3z"/>
<ellipse class="st0" cx="657.2" cy="99.3" rx="96.1" ry="95.3"/>
</svg>
